<?xml version="1.0" encoding="UTF-8"?>
<svg id="Layer_1" data-name="Layer 1" xmlns="http://www.w3.org/2000/svg" xmlns:xlink="http://www.w3.org/1999/xlink" viewBox="0 0 240.72 229.8">
  <defs>
    <style>
      .cls-1 {
        fill: #1c4483;
      }

      .cls-1, .cls-2, .cls-3, .cls-4, .cls-5, .cls-6, .cls-7, .cls-8, .cls-9, .cls-10 {
        stroke-width: 0px;
      }

      .cls-2 {
        fill: #803884;
      }

      .cls-2, .cls-8, .cls-9 {
        fill-rule: evenodd;
      }

      .cls-3 {
        fill: url(#linear-gradient);
      }

      .cls-11 {
        clip-path: url(#clippath-2);
      }

      .cls-12 {
        fill: #17538c;
        font-family: AvenirLTStd-Black, 'Avenir LT Std';
        font-size: 61.47px;
        font-weight: 800;
      }

      .cls-13 {
        clip-path: url(#clippath-1);
      }

      .cls-4 {
        clip-rule: evenodd;
        fill: none;
      }

      .cls-14 {
        fill: #808184;
        font-size: 12.64px;
      }

      .cls-14, .cls-15 {
        font-family: AvenirLTStd-Book, 'Avenir LT Std';
      }

      .cls-5 {
        fill: #7e307b;
      }

      .cls-6 {
        fill: url(#linear-gradient-2);
      }

      .cls-7 {
        fill: url(#linear-gradient-3);
      }

      .cls-15 {
        fill: #58595b;
        font-size: 11.97px;
      }

      .cls-16 {
        clip-path: url(#clippath);
      }

      .cls-17 {
        clip-path: url(#clippath-3);
      }

      .cls-8 {
        fill: #15548d;
      }

      .cls-9 {
        fill: #6c7c9a;
      }

      .cls-10 {
        fill: url(#linear-gradient-4);
      }
    </style>
    <clipPath id="clippath">
      <path class="cls-4" d="M134.59,34.67c-5.25-8.01-12.9-19.42-14.38-20.95l-39.77,2.58-3.35,7.2,38.03-2.52c2.79.27,3.73,2.64,5.14,4.75l9.09,13.27c1.55-1.65,3.32-3.11,5.25-4.34"/>
    </clipPath>
    <linearGradient id="linear-gradient" x1="97.05" y1="24.15" x2="148.38" y2="37.13" gradientUnits="userSpaceOnUse">
      <stop offset="0" stop-color="#792369"/>
      <stop offset="1" stop-color="#844399"/>
    </linearGradient>
    <clipPath id="clippath-1">
      <path class="cls-4" d="M124.78,45.57l-2.54-3.76-9.04-13.47-39.83,2.69-3.9,7.53,33.69-2.33c1.43-.1,2.8-.05,4.06.02,1.5.09,2.67.67,3.38,1.71l11.58,16.82c.3-3.27,1.21-6.38,2.6-9.21"/>
    </clipPath>
    <linearGradient id="linear-gradient-2" x1="88.59" y1="39.57" x2="138.43" y2="51.16" gradientUnits="userSpaceOnUse">
      <stop offset="0" stop-color="#792369"/>
      <stop offset="1" stop-color="#844399"/>
    </linearGradient>
    <clipPath id="clippath-2">
      <path class="cls-4" d="M74.86,93.37c2.26,3.44,6.22,5.38,12.34,5.09,9.02-.43,18.26-1.29,27.35-1.93,8.32-.59,17.33-.51,21.04-6.12.92-1.39.48-2.31-.47-3.72l-26.56-39.21c-2.93-4.33-1.78-3.98-7.04-3.77-7.18.29-15.33,1.23-22.3,1.64-6.07.36-24.14,3.69-18.62-4.92l13.39-27.97c1.17-2.44,2.51-3.32,5.57-3.52l34.12-2.16c11.52-.8,9.55-1.79,14.91,6.18,1.44,2.14,6.92,10.39,12.5,18.67,1.99-.64,4.08-1.06,6.24-1.24-2.35-3.5-4.92-7.41-7.1-10.62-3.41-5.02-5.71-8.81-7.7-11.64-4.44-6.28-4.42-8.12-15.85-7.35l-36.32,2.45c-3.84.26-6.93,1.53-9.76,4.49-2.51,2.63-16.24,30.53-19.01,37.51-.75,1.88-1.26,3.86-1.43,5.95-.23,2.9.05,4.74,1.07,6.29l23.65,35.92Z"/>
    </clipPath>
    <linearGradient id="linear-gradient-3" x1="129.38" y1="68.33" x2="77.53" y2="36.38" gradientUnits="userSpaceOnUse">
      <stop offset="0" stop-color="#214285"/>
      <stop offset="1" stop-color="#009ba9"/>
    </linearGradient>
    <clipPath id="clippath-3">
      <path class="cls-4" d="M133.02,225.01c-1.19.09-2.03.11-2.03.11h-1.51c.24.19.53.36.85.51.21.1.43.18.66.25.55.18,1.15.3,1.72.39.13.02.26.03.38.05,1.3.15,2.39.11,2.39.11l1.26-1.91c-1.28.27-2.65.42-3.73.5M144.21,218.54l.95,1.59c-.37.29-.69.49-1.06.74-.06.04-.12.08-.17.12-.51.35-1.01.67-1.48.95-1.39.84-2.52,1.38-3,1.68l-1.04,1.61h2.74c.58-.38,1.15-.76,1.69-1.13.25-.18.5-.35.73-.51.55-.39,1.04-.75,1.44-1.05.07-.05.13-.1.19-.14.57-.42.91-.68.91-.68l1.27,1.59,1.64-4.77h-4.82Z"/>
    </clipPath>
    <linearGradient id="linear-gradient-4" x1="148.27" y1="217.73" x2="133.11" y2="225.77" gradientUnits="userSpaceOnUse">
      <stop offset="0" stop-color="#f06524"/>
      <stop offset=".8" stop-color="#f7bf66"/>
      <stop offset="1" stop-color="#f9d678"/>
    </linearGradient>
  </defs>
  <g class="cls-16">
    <rect class="cls-3" x="77.08" y="13.73" width="57.5" height="25.29"/>
  </g>
  <g class="cls-13">
    <rect class="cls-6" x="69.47" y="28.33" width="55.31" height="26.44"/>
  </g>
  <g class="cls-11">
    <rect class="cls-7" x="49.92" width="97.41" height="98.75"/>
  </g>
  <path class="cls-9" d="M149.13,38.36c10.92,0,19.77,8.85,19.77,19.77s-8.85,19.77-19.77,19.77-19.77-8.85-19.77-19.77,8.85-19.77,19.77-19.77M149.13,33.96c13.35,0,24.17,10.82,24.17,24.17,0,4.27-1.11,8.28-3.05,11.76.16.2.34.29.7.43.07.13-.02.04.24.31l1.13.95c.49.41,1.09,1.04,1.63,1.2.32.53.17.36.7.58l.1.16c.55.68,3.45,2.99,3.86,3.11.38.63.95.96,1.52,1.43.61.51,1,.95,1.73,1.27l5.15,4.39c.29.18.15.12.38.17.17.27.05.1.24.32.03.04.13.14.17.18l.85.76c.36.28.08.09.44.3.08.35,1.05,1.87,1.43,3.02.15,1.49.23,2.02,0,3.53-.21.59-.36,1.04-.62,1.51-.28.51-.66.88-.79,1.39-.5.27-.46.23-.73.72-.69.17-.84.88-3.36,1.51-1.68.12-2.11.03-3.69-.21,0,0-1.61-.88-1.97-1.17-.88-.7-2.27-2.53-3.09-3.5-.27-.32-.47-.55-.74-.87l-.73-.75c-.28-.59-.16-.42-.62-.7-.1-.45-.09-.32-.45-.75-.23-.27-.36-.42-.59-.7-.47-.56-2.9-3.67-3.38-3.92-.24-.54-2.11-2.95-2.79-3.33-.08-.34-1.75-2.44-3.09-3.91-4.08,3.14-9.19,5.01-14.73,5.01-13.35,0-24.17-10.82-24.17-24.17s10.82-24.17,24.17-24.17Z"/>
  <path class="cls-2" d="M133.98,54.33c.75-3.56,2.84-6.64,5.74-8.71l7.85,11.43c1,1.41,1.52,2.57.35,5.13-1.04,2.3-2.21,5.07-3.77,7.01l-10.17-14.85Z"/>
  <path class="cls-8" d="M149.08,42.84c2.65.1,5.12.89,7.23,2.17-.87,1.76-1.84,3.51-2.33,4.13-.63-.42-2.52-2.93-4.91-6.3"/>
  <text class="cls-15" transform="translate(68.5 198.69)"><tspan x="0" y="0">AML Scr</tspan></text>
  <text class="cls-15" transform="translate(112.87 198.69)"><tspan x="0" y="0">eening Solution</tspan></text>
  <text class="cls-12" transform="translate(64.11 176.78)"><tspan x="0" y="0">Check</tspan></text>
  <path class="cls-5" d="M8.76,157.02v7.76c0,2.85,3.38,5.18,11.15,5.18h31.71c2.12,0,2.59,1.2,2.59,3.58s-.46,3.58-2.59,3.58h-31.98c-13.07,0-19.64-4.11-19.64-12.34v-23.42c0-8.29,6.57-12.34,19.64-12.34h9.88c2.06,0,2.52,1.19,2.52,3.58s-.46,3.58-2.52,3.58h-9.62c-7.76,0-11.15,2.26-11.15,5.18v8.49h43.06c2.12,0,2.59,1.2,2.59,3.58s-.46,3.58-2.59,3.58H8.76Z"/>
  <text class="cls-14" transform="translate(75.67 221.76)"><tspan x="0" y="0">by</tspan></text>
  <path class="cls-1" d="M94.62,225.11v1.78c0,.65.78,1.19,2.56,1.19h7.28c.49,0,.59.27.59.82s-.11.82-.59.82h-7.34c-3,0-4.51-.94-4.51-2.83v-5.38c0-1.9,1.51-2.83,4.51-2.83h2.27c.47,0,.58.27.58.82s-.11.82-.58.82h-2.21c-1.78,0-2.56.52-2.56,1.19v1.95h9.88c.49,0,.59.27.59.82s-.11.82-.59.82h-9.88Z"/>
  <path class="cls-1" d="M109.62,220.33v8.74c0,.58-.35.72-1.02.72s-1.01-.14-1.01-.72v-8.74h-4.58c-.49,0-.59-.27-.59-.82s.11-.82.59-.82h11.21c.49,0,.59.27.59.82s-.11.82-.59.82h-4.6Z"/>
  <path class="cls-1" d="M117.73,229.07c0,.58-.35.72-1.02.72s-1-.14-1-.72v-9.73c0-.58.35-.72,1-.72s1.02.14,1.02.72v9.73Z"/>
  <path class="cls-1" d="M132.02,218.63c-.67,0-1.02.14-1.02.72v4.13h-9.8v-4.13c0-.58-.35-.72-1.02-.72s-1,.14-1,.72v9.73c0,.58.35.72,1,.72s1.02-.14,1.02-.72v-3.96h9.8c.44.03,1,.04,1.75.02.09,0,.18,0,.28,0v-5.78c0-.58-.35-.72-1-.72M131,226.37v2.7c0,.58.35.72,1.02.72s1-.14,1-.72v-2.34c-.28,0-1.12-.02-2.03-.37ZM132.58,226.24c-.72-.2-1.19-.37-1.58-.52v.17c.55.18,1.15.31,1.72.39-.05,0-.09-.02-.14-.03Z"/>
  <path class="cls-1" d="M149.3,228.65l-4.02-5.73c-.26.24-.85.75-1.42,1.09l.84,1.23h-6.29l1.04-1.62,2.02-3.12.98,1.44c.47-.28.96-.6,1.48-.95l-1.27-1.82c-.24-.33-.59-.53-1.19-.53s-.98.2-1.21.53l-3.52,5.34-1.26,1.91-1.46,2.22c-.06.11-.11.21-.11.34,0,.47.59.82,1.1.82.26,0,.52-.09.66-.31l1.69-2.62h8.47l1.8,2.62c.15.22.39.31.67.31.51,0,1.11-.35,1.11-.81,0-.1-.03-.23-.1-.35"/>
  <path class="cls-1" d="M164.15,226.9c0,1.89-1.49,2.83-4.51,2.83h-8.63c-.47,0-.7-.24-.7-.72v-9.62c0-.47.23-.7.7-.7h8.63c3.01,0,4.51.93,4.51,2.83v5.38ZM152.33,228.08h7.25c1.78,0,2.57-.53,2.57-1.19v-5.38c0-.67-.79-1.19-2.57-1.19h-7.25v7.75Z"/>
  <g class="cls-17">
    <rect class="cls-10" x="129.49" y="218.54" width="19.54" height="7.93"/>
  </g>
</svg>