<svg width="15" height="15" viewBox="0 0 15 15" fill="none" xmlns="http://www.w3.org/2000/svg">
<path d="M13.5304 1.62134L9.93872 1.62136V0.727371C9.93872 0.47954 9.73799 0.278809 9.49016 0.278809C9.24233 0.278809 9.0416 0.47954 9.0416 0.727371V1.62113H5.4531V0.727371C5.4531 0.47954 5.25237 0.278809 5.00454 0.278809C4.7567 0.278809 4.55597 0.47954 4.55597 0.727371V1.62113H0.970612C0.475174 1.62113 0.0734863 2.02282 0.0734863 2.51826V13.7323C0.0734863 14.2277 0.475174 14.6294 0.970612 14.6294H13.5304C14.0258 14.6294 14.4275 14.2277 14.4275 13.7323V2.51826C14.4275 2.02303 14.0258 1.62134 13.5304 1.62134ZM13.5304 13.7323H0.970612V2.51826H4.55597V2.97018C4.55597 3.218 4.7567 3.41875 5.00454 3.41875C5.25237 3.41875 5.4531 3.218 5.4531 2.97018V2.51848H9.0416V2.97041C9.0416 3.21824 9.24233 3.41897 9.49016 3.41897C9.73799 3.41897 9.93872 3.21824 9.93872 2.97041V2.51848H13.5304V13.7323ZM10.3904 7.45266H11.2876C11.5352 7.45266 11.7361 7.2517 11.7361 7.00409V6.10697C11.7361 5.85936 11.5352 5.65841 11.2876 5.65841H10.3904C10.1428 5.65841 9.94186 5.85936 9.94186 6.10697V7.00409C9.94186 7.2517 10.1428 7.45266 10.3904 7.45266ZM10.3904 11.0409H11.2876C11.5352 11.0409 11.7361 10.8402 11.7361 10.5924V9.69525C11.7361 9.44764 11.5352 9.24668 11.2876 9.24668H10.3904C10.1428 9.24668 9.94186 9.44764 9.94186 9.69525V10.5924C9.94186 10.8404 10.1428 11.0409 10.3904 11.0409ZM7.69905 9.24668H6.80193C6.55432 9.24668 6.35336 9.44764 6.35336 9.69525V10.5924C6.35336 10.8402 6.55432 11.0409 6.80193 11.0409H7.69905C7.94666 11.0409 8.14761 10.8402 8.14761 10.5924V9.69525C8.14761 9.44786 7.94666 9.24668 7.69905 9.24668ZM7.69905 5.65841H6.80193C6.55432 5.65841 6.35336 5.85936 6.35336 6.10697V7.00409C6.35336 7.2517 6.55432 7.45266 6.80193 7.45266H7.69905C7.94666 7.45266 8.14761 7.2517 8.14761 7.00409V6.10697C8.14761 5.85914 7.94666 5.65841 7.69905 5.65841ZM4.11055 5.65841H3.21342C2.96582 5.65841 2.76486 5.85936 2.76486 6.10697V7.00409C2.76486 7.2517 2.96582 7.45266 3.21342 7.45266H4.11055C4.35816 7.45266 4.55911 7.2517 4.55911 7.00409V6.10697C4.55911 5.85914 4.35816 5.65841 4.11055 5.65841ZM4.11055 9.24668H3.21342C2.96582 9.24668 2.76486 9.44764 2.76486 9.69525V10.5924C2.76486 10.8402 2.96582 11.0409 3.21342 11.0409H4.11055C4.35816 11.0409 4.55911 10.8402 4.55911 10.5924V9.69525C4.55911 9.44786 4.35816 9.24668 4.11055 9.24668Z" fill="#0E0E0E"/>
</svg>
