<svg width="17" height="15" viewBox="0 0 17 15" fill="none" xmlns="http://www.w3.org/2000/svg">
<path fill-rule="evenodd" clip-rule="evenodd" d="M4.20748 2.82627V1.80415C4.20761 1.43813 4.34357 1.0843 4.59066 0.806962C4.83774 0.529625 5.17956 0.34719 5.55398 0.292809L6.65647 0.132939C7.87865 -0.0443131 9.12134 -0.0443131 10.3435 0.132939L11.446 0.292809C11.8204 0.34719 12.1622 0.529625 12.4093 0.806962C12.6564 1.0843 12.7924 1.43813 12.7925 1.80415V2.82627L14.3414 2.94683C14.9177 2.99183 15.4617 3.22233 15.8865 3.60148C16.3113 3.98062 16.5924 4.4865 16.6847 5.03824C17.1051 7.54778 17.1051 10.1064 16.6847 12.6159C16.5924 13.1677 16.3113 13.6735 15.8865 14.0527C15.4617 14.4318 14.9177 14.6623 14.3414 14.7073L12.6497 14.8384C9.88773 15.0539 7.11226 15.0539 4.35027 14.8384L2.65857 14.7073C2.08228 14.6623 1.53825 14.4318 1.11346 14.0527C0.688661 13.6735 0.407634 13.1677 0.315308 12.6159C-0.105103 10.1064 -0.105103 7.54778 0.315308 5.03824C0.407817 4.48666 0.688925 3.98098 1.1137 3.60201C1.53848 3.22304 2.08241 2.99267 2.65857 2.9477L4.20748 2.82627ZM6.858 1.4285C7.94657 1.27066 9.05342 1.27066 10.142 1.4285L11.2445 1.58837C11.298 1.59611 11.3468 1.62214 11.3821 1.66174C11.4175 1.70133 11.4369 1.75186 11.437 1.80415V2.73454C9.48058 2.62668 7.51941 2.62668 5.56301 2.73454V1.80328C5.56307 1.75099 5.58252 1.70046 5.61784 1.66086C5.65317 1.62127 5.70201 1.59523 5.7555 1.5875L6.858 1.4285ZM4.45961 4.12096C7.14898 3.91129 9.85101 3.91129 12.5404 4.12096L14.2321 4.25374C14.5062 4.27495 14.7651 4.38443 14.9672 4.56466C15.1694 4.7449 15.3032 4.98548 15.3472 5.24791C15.4033 5.58425 15.4511 5.92059 15.4918 6.25955C13.3166 7.29477 10.9245 7.83315 8.49999 7.83315C6.07548 7.83315 3.68337 7.29477 1.50817 6.25955C1.54794 5.92146 1.59673 5.58425 1.65276 5.24791C1.69678 4.98548 1.83057 4.7449 2.03274 4.56466C2.23491 4.38443 2.49377 4.27495 2.76791 4.25374L4.45961 4.12096ZM1.38708 7.65382C3.62086 8.63557 6.0462 9.14353 8.49999 9.14353C10.9538 9.14353 13.3791 8.63557 15.6129 7.65382C15.6993 9.24259 15.6102 10.8357 15.3472 12.4062C15.3034 12.6688 15.1697 12.9096 14.9675 13.09C14.7653 13.2704 14.5063 13.38 14.2321 13.4013L12.5404 13.5323C9.85101 13.742 7.14898 13.742 4.45961 13.5323L2.76791 13.4013C2.49364 13.38 2.23468 13.2704 2.0325 13.09C1.83031 12.9096 1.6966 12.6688 1.65276 12.4062C1.38979 10.8338 1.30033 9.24029 1.38708 7.65382Z" fill="#575757"/>
</svg>
