<svg width="24" height="13" viewBox="0 0 24 13" fill="none" xmlns="http://www.w3.org/2000/svg">
<path d="M12.6345 2.16868C12.6345 1.97718 12.7126 1.79352 12.8518 1.6581C12.9909 1.52269 13.1796 1.44662 13.3764 1.44662H22.2791C22.4759 1.44662 22.6646 1.52269 22.8037 1.6581C22.9428 1.79352 23.021 1.97718 23.021 2.16868C23.021 2.36018 22.9428 2.54384 22.8037 2.67926C22.6646 2.81467 22.4759 2.89075 22.2791 2.89075H13.3764C13.1796 2.89075 12.9909 2.81467 12.8518 2.67926C12.7126 2.54384 12.6345 2.36018 12.6345 2.16868ZM22.2791 5.779H13.3764C13.1796 5.779 12.9909 5.85508 12.8518 5.99049C12.7126 6.1259 12.6345 6.30956 12.6345 6.50107C12.6345 6.69257 12.7126 6.87623 12.8518 7.01164C12.9909 7.14706 13.1796 7.22313 13.3764 7.22313H22.2791C22.4759 7.22313 22.6646 7.14706 22.8037 7.01164C22.9428 6.87623 23.021 6.69257 23.021 6.50107C23.021 6.30956 22.9428 6.1259 22.8037 5.99049C22.6646 5.85508 22.4759 5.779 22.2791 5.779ZM22.2791 10.1114H15.6021C15.4053 10.1114 15.2166 10.1875 15.0775 10.3229C14.9383 10.4583 14.8602 10.6419 14.8602 10.8335C14.8602 11.025 14.9383 11.2086 15.0775 11.344C15.2166 11.4794 15.4053 11.5555 15.6021 11.5555H22.2791C22.4759 11.5555 22.6646 11.4794 22.8037 11.344C22.9428 11.2086 23.021 11.025 23.021 10.8335C23.021 10.6419 22.9428 10.4583 22.8037 10.3229C22.6646 10.1875 22.4759 10.1114 22.2791 10.1114ZM13.3532 12.0971C13.3774 12.1889 13.3829 12.2845 13.3691 12.3784C13.3554 12.4723 13.3228 12.5627 13.2732 12.6443C13.2236 12.726 13.158 12.7973 13.08 12.8542C13.0021 12.9112 12.9134 12.9526 12.819 12.9762C12.7586 12.992 12.6962 12.9999 12.6336 12.9996C12.469 12.9997 12.3091 12.9466 12.179 12.8485C12.0489 12.7505 11.956 12.6132 11.9148 12.4581C11.3436 10.2973 9.10121 8.66726 6.6984 8.66726C4.2956 8.66726 2.05322 10.2964 1.48196 12.4581C1.43277 12.6436 1.30988 12.8025 1.14031 12.8998C0.970742 12.9972 0.768394 13.025 0.577781 12.9771C0.387167 12.9292 0.223901 12.8096 0.1239 12.6446C0.023899 12.4795 -0.00464611 12.2826 0.0445445 12.0971C0.562943 10.1376 2.06991 8.55083 3.98215 7.76468C3.24585 7.21272 2.70552 6.45029 2.43695 5.58433C2.16838 4.71838 2.18504 3.79232 2.48458 2.93604C2.78413 2.07976 3.35154 1.33621 4.10724 0.809669C4.86293 0.283126 5.76902 0 6.6984 0C7.62779 0 8.53388 0.283126 9.28957 0.809669C10.0453 1.33621 10.6127 2.07976 10.9122 2.93604C11.2118 3.79232 11.2284 4.71838 10.9599 5.58433C10.6913 6.45029 10.151 7.21272 9.41466 7.76468C11.3278 8.55083 12.8348 10.1376 13.3532 12.0971ZM6.69933 7.22313C7.28626 7.22313 7.86001 7.05374 8.34803 6.73637C8.83604 6.41901 9.21641 5.96792 9.44102 5.44016C9.66562 4.9124 9.72439 4.33167 9.60989 3.7714C9.49538 3.21114 9.21275 2.6965 8.79773 2.29257C8.3827 1.88864 7.85393 1.61356 7.27828 1.50211C6.70262 1.39067 6.10594 1.44787 5.56369 1.66647C5.02144 1.88508 4.55796 2.25527 4.23188 2.73024C3.9058 3.20522 3.73176 3.76363 3.73176 4.33487C3.73176 5.10089 4.04441 5.83553 4.60094 6.37718C5.15747 6.91883 5.91228 7.22313 6.69933 7.22313Z" fill="#575757"/>
</svg>
