<svg width="15" height="14" viewBox="0 0 15 14" fill="none" xmlns="http://www.w3.org/2000/svg">
<path d="M4.89653 6.61124C5.84364 5.74733 7.49546 5.74733 8.44258 6.61124L9.03358 7.15032L10.2156 6.07215L9.62459 5.53307C8.8363 4.81328 7.78636 4.41602 6.66955 4.41602C5.55274 4.41602 4.5028 4.81328 3.71451 5.53307L1.94065 7.15032C1.15846 7.86609 0.719238 8.8355 0.719238 9.84612C0.719238 10.8567 1.15846 11.8262 1.94065 12.5419C2.32842 12.8961 2.7891 13.177 3.29622 13.3683C3.80334 13.5596 4.34691 13.6576 4.89569 13.6567C5.44462 13.6577 5.98836 13.5598 6.49564 13.3685C7.00292 13.1772 7.46373 12.8962 7.85157 12.5419L8.44258 12.0028L7.26056 10.9247L6.66955 11.4638C6.19848 11.8915 5.56082 12.1317 4.89611 12.1317C4.2314 12.1317 3.59374 11.8915 3.12267 11.4638C2.65329 11.0343 2.38972 10.4526 2.38972 9.84612C2.38972 9.23968 2.65329 8.65798 3.12267 8.22849L4.89653 6.61124Z" fill="#575757"/>
<path d="M7.85085 1.75926L7.25984 2.29834L8.44186 3.37651L9.03287 2.83743C9.50394 2.40966 10.1416 2.16951 10.8063 2.16951C11.471 2.16951 12.1087 2.40966 12.5798 2.83743C13.0491 3.26692 13.3127 3.84862 13.3127 4.45506C13.3127 5.0615 13.0491 5.6432 12.5798 6.07269L10.8059 7.68994C9.85877 8.55385 8.20696 8.55385 7.25984 7.68994L6.66883 7.15086L5.48682 8.22903L6.07782 8.76811C6.86611 9.4879 7.91605 9.88516 9.03287 9.88516C10.1497 9.88516 11.1996 9.4879 11.9879 8.76811L13.7618 7.15086C14.544 6.43509 14.9832 5.46568 14.9832 4.45506C14.9832 3.44444 14.544 2.47503 13.7618 1.75926C12.9773 1.04542 11.9144 0.644531 10.8063 0.644531C9.69821 0.644531 8.63534 1.04542 7.85085 1.75926Z" fill="#575757"/>
</svg>
