<svg width="16" height="16" viewBox="0 0 16 16" fill="none" xmlns="http://www.w3.org/2000/svg">
<path d="M7.55835 14.8086C7.55835 14.6198 7.63335 14.4388 7.76685 14.3053C7.90036 14.1717 8.08143 14.0967 8.27023 14.0967H13.9653C14.0282 14.0967 14.0885 14.0717 14.133 14.0272C14.1775 13.9827 14.2025 13.9224 14.2025 13.8595V2.4694C14.2025 2.40647 14.1775 2.34611 14.133 2.30161C14.0885 2.25711 14.0282 2.23211 13.9653 2.23211H8.27023C8.08143 2.23211 7.90036 2.15711 7.76685 2.0236C7.63335 1.8901 7.55835 1.70903 7.55835 1.52023C7.55835 1.33143 7.63335 1.15036 7.76685 1.01685C7.90036 0.883351 8.08143 0.80835 8.27023 0.80835H13.9653C14.8822 0.80835 15.6263 1.5525 15.6263 2.4694V13.8595C15.6263 14.3 15.4513 14.7225 15.1398 15.034C14.8283 15.3455 14.4058 15.5205 13.9653 15.5205H8.27023C8.08143 15.5205 7.90036 15.4455 7.76685 15.312C7.63335 15.1785 7.55835 14.9974 7.55835 14.8086Z" fill="#ADADAD"/>
<path d="M11.6988 9.22268C11.6988 9.47442 11.5988 9.71584 11.4208 9.89384C11.2428 10.0718 11.0014 10.1719 10.7496 10.1719H6.14047C6.11864 10.5098 6.09111 10.8458 6.05884 11.1837L6.03036 11.4732C6.01976 11.5823 5.98299 11.6872 5.92318 11.7791C5.86337 11.8709 5.78229 11.947 5.6868 12.0009C5.59132 12.0547 5.48425 12.0847 5.37469 12.0884C5.26513 12.092 5.15631 12.0692 5.05746 12.0218C3.32236 11.1902 1.75161 10.0523 0.420762 8.66267L0.392286 8.63324C0.270115 8.50583 0.201904 8.33613 0.201904 8.15961C0.201904 7.98308 0.270115 7.81339 0.392286 7.68597L0.420762 7.65655C1.75159 6.26694 3.32235 5.12899 5.05746 4.29743C5.15631 4.25004 5.26513 4.2272 5.37469 4.23084C5.48425 4.23449 5.59132 4.2645 5.6868 4.31835C5.78229 4.37219 5.86337 4.44827 5.92318 4.54014C5.98299 4.63201 6.01976 4.73694 6.03036 4.84605L6.05884 5.13555C6.09111 5.4725 6.11864 5.80946 6.14047 6.14736H10.7496C11.0014 6.14736 11.2428 6.24737 11.4208 6.42537C11.5988 6.60337 11.6988 6.8448 11.6988 7.09654V9.22268Z" fill="#ADADAD"/>
</svg>
