<svg width="18" height="17" viewBox="0 0 18 17" fill="none" xmlns="http://www.w3.org/2000/svg">
<path d="M9.07764 0.119141C13.7067 0.119141 17.459 3.87147 17.459 8.50049C17.459 13.1295 13.7067 16.8818 9.07764 16.8818C4.44862 16.8818 0.696289 13.1295 0.696289 8.50049C0.696289 3.87147 4.44862 0.119141 9.07764 0.119141ZM9.07764 1.79541C7.29934 1.79541 5.59388 2.50184 4.33643 3.75928C3.07898 5.01673 2.37256 6.72219 2.37256 8.50049C2.37256 10.2788 3.07898 11.9842 4.33643 13.2417C5.59388 14.4991 7.29934 15.2056 9.07764 15.2056C10.8559 15.2056 12.5614 14.4991 13.8188 13.2417C15.0763 11.9842 15.7827 10.2788 15.7827 8.50049C15.7827 6.72219 15.0763 5.01673 13.8188 3.75928C12.5614 2.50184 10.8559 1.79541 9.07764 1.79541ZM5.30603 7.24329C5.63946 7.24329 5.95924 7.37574 6.19501 7.61151C6.43078 7.84728 6.56323 8.16706 6.56323 8.50049C6.56323 8.83392 6.43078 9.15369 6.19501 9.38946C5.95924 9.62524 5.63946 9.75769 5.30603 9.75769C4.9726 9.75769 4.65283 9.62524 4.41705 9.38946C4.18128 9.15369 4.04883 8.83392 4.04883 8.50049C4.04883 8.16706 4.18128 7.84728 4.41705 7.61151C4.65283 7.37574 4.9726 7.24329 5.30603 7.24329ZM9.07764 7.24329C9.41107 7.24329 9.73084 7.37574 9.96661 7.61151C10.2024 7.84728 10.3348 8.16706 10.3348 8.50049C10.3348 8.83392 10.2024 9.15369 9.96661 9.38946C9.73084 9.62524 9.41107 9.75769 9.07764 9.75769C8.74421 9.75769 8.42443 9.62524 8.18866 9.38946C7.95289 9.15369 7.82043 8.83392 7.82043 8.50049C7.82043 8.16706 7.95289 7.84728 8.18866 7.61151C8.42443 7.37574 8.74421 7.24329 9.07764 7.24329ZM12.8492 7.24329C13.1827 7.24329 13.5024 7.37574 13.7382 7.61151C13.974 7.84728 14.1064 8.16706 14.1064 8.50049C14.1064 8.83392 13.974 9.15369 13.7382 9.38946C13.5024 9.62524 13.1827 9.75769 12.8492 9.75769C12.5158 9.75769 12.196 9.62524 11.9603 9.38946C11.7245 9.15369 11.592 8.83392 11.592 8.50049C11.592 8.16706 11.7245 7.84728 11.9603 7.61151C12.196 7.37574 12.5158 7.24329 12.8492 7.24329Z" fill="#575757"/>
</svg>
