<svg width="240" height="102" viewBox="0 0 240 102" fill="none" xmlns="http://www.w3.org/2000/svg">
<g clip-path="url(#clip0_327_43)">
<path d="M140.154 94.7593V97.3341C140.154 98.2703 141.257 99.0311 143.811 99.0311H154.203C154.899 99.0311 155.044 99.4407 155.044 100.201C155.044 100.962 154.899 101.401 154.203 101.401H143.724C139.428 101.401 137.281 100.055 137.281 97.3341V89.5806C137.281 86.8303 139.428 85.5137 143.724 85.5137H146.975C147.643 85.5137 147.788 85.9233 147.788 86.7133C147.788 87.5032 147.643 87.8836 146.975 87.8836H143.811C141.257 87.8836 140.154 88.6443 140.154 89.5806V92.3894H154.29C154.986 92.3894 155.131 92.799 155.131 93.5597C155.131 94.3204 154.986 94.7593 154.29 94.7593H140.154Z" fill="white"/>
<path d="M161.604 87.8543V100.435C161.604 101.255 161.111 101.459 160.153 101.459C159.195 101.459 158.702 101.255 158.702 100.435V87.8543H152.142C151.445 87.8543 151.3 87.4447 151.3 86.684C151.3 85.9233 151.445 85.4844 152.142 85.4844H168.164C168.861 85.4844 169.006 85.894 169.006 86.684C169.006 87.4739 168.861 87.8543 168.164 87.8543H161.604Z" fill="white"/>
<path d="M173.215 100.465C173.215 101.284 172.721 101.489 171.763 101.489C170.805 101.489 170.341 101.284 170.341 100.465V86.4498C170.341 85.6306 170.835 85.4258 171.763 85.4258C172.692 85.4258 173.215 85.6306 173.215 86.4498V100.465Z" fill="white"/>
<path d="M193.62 85.3965C192.662 85.3965 192.169 85.6013 192.169 86.4205V92.36H178.149V86.4205C178.149 85.6013 177.656 85.3965 176.698 85.3965C175.74 85.3965 175.276 85.6013 175.276 86.4205V100.435C175.276 101.255 175.769 101.459 176.698 101.459C177.627 101.459 178.149 101.255 178.149 100.435V94.7299H192.169C192.807 94.7884 193.591 94.7884 194.665 94.7592C194.81 94.7592 194.926 94.7592 195.071 94.7592V86.4205C195.071 85.6013 194.578 85.3965 193.649 85.3965H193.62ZM192.169 96.5439V100.435C192.169 101.255 192.662 101.459 193.62 101.459C194.578 101.459 195.042 101.255 195.042 100.435V97.0706C194.636 97.0706 193.446 97.0413 192.14 96.5439H192.169ZM194.433 96.3684C193.388 96.0758 192.72 95.8417 192.169 95.6077V95.8417C192.952 96.1051 193.823 96.2806 194.636 96.3976C194.578 96.3976 194.491 96.3684 194.433 96.3391V96.3684Z" fill="white"/>
<path d="M218.321 99.8208L212.574 91.57C212.197 91.9211 211.355 92.6525 210.542 93.1499L211.732 94.9054H202.734L204.214 92.5648L207.088 88.059L208.481 90.1363C209.149 89.7267 209.845 89.2878 210.6 88.7612L208.771 86.1279C208.423 85.6598 207.93 85.3672 207.088 85.3672C206.246 85.3672 205.695 85.6598 205.375 86.1279L200.354 93.8229L198.554 96.5732L196.464 99.7623C196.377 99.9086 196.319 100.055 196.319 100.26C196.319 100.933 197.161 101.43 197.887 101.43C198.264 101.43 198.641 101.313 198.816 100.991L201.225 97.2168H213.329L215.883 100.991C216.115 101.313 216.434 101.43 216.841 101.43C217.566 101.43 218.437 100.933 218.437 100.26C218.437 100.113 218.408 99.9379 218.292 99.7623L218.321 99.8208Z" fill="white"/>
<path d="M239.539 97.3048C239.539 100.026 237.42 101.372 233.095 101.372H220.759C220.092 101.372 219.772 101.021 219.772 100.348V86.4792C219.772 85.8062 220.092 85.4844 220.759 85.4844H233.095C237.391 85.4844 239.539 86.8303 239.539 89.5513V97.3048ZM222.646 99.031H233.008C235.563 99.031 236.695 98.2703 236.695 97.334V89.5806C236.695 88.615 235.563 87.8836 233.008 87.8836H222.646V99.0603V99.031Z" fill="white"/>
<mask id="mask0_327_43" style="mask-type:luminance" maskUnits="userSpaceOnUse" x="189" y="85" width="29" height="12">
<path d="M211.065 85.2795L212.429 87.5617C211.906 87.9713 211.442 88.2639 210.919 88.615C210.832 88.6735 210.745 88.732 210.658 88.7905C209.933 89.2879 209.207 89.756 208.539 90.1657C206.537 91.3653 204.94 92.1552 204.243 92.5941L202.763 94.9348H206.682C207.523 94.4081 208.336 93.8522 209.091 93.2963C209.468 93.033 209.816 92.7989 210.136 92.5648C210.919 92.0089 211.616 91.4823 212.197 91.0434C212.284 90.9849 212.371 90.8971 212.458 90.8386C213.271 90.2242 213.764 89.8438 213.764 89.8438L215.593 92.126L217.944 85.2502H211.065V85.2795ZM195.042 94.6129C193.359 94.7592 192.14 94.7592 192.14 94.7592H189.992C190.34 95.0518 190.746 95.2859 191.211 95.4907C191.501 95.637 191.82 95.754 192.169 95.871C192.952 96.1344 193.823 96.3099 194.636 96.427C194.81 96.427 195.013 96.4855 195.187 96.5147C197.045 96.7195 198.612 96.661 198.612 96.661L200.412 93.9107C198.583 94.2911 196.639 94.5252 195.071 94.6422L195.042 94.6129Z" fill="white"/>
</mask>
<g mask="url(#mask0_327_43)">
<path d="M200.384 94.0864L200.296 93.8816H200.384V94.0864Z" fill="#F8BD65"/>
<path d="M200.383 94.5253L200.035 93.8816H200.296L200.383 94.0864V94.5253Z" fill="#F8BE66"/>
<path d="M200.383 94.9934L199.802 93.8816H200.035L200.383 94.5253V94.9934Z" fill="#F8BF67"/>
<path d="M200.383 95.4615L199.541 93.8816H199.803L200.383 94.9934V95.4615Z" fill="#F8C067"/>
<path d="M200.383 95.9297L199.309 93.8816H199.541L200.383 95.4615V95.9297Z" fill="#F8C168"/>
<path d="M200.383 96.3686L199.077 93.8816H199.309L200.383 95.9297V96.3686Z" fill="#F8C269"/>
<path d="M200.325 96.6904L198.816 93.8816H199.077L200.383 96.3686V96.6904H200.325Z" fill="#F8C36A"/>
<path d="M200.064 96.6904L198.583 93.8816H198.816L200.325 96.6904H200.064Z" fill="#F9C46A"/>
<path d="M199.832 96.6904L198.322 93.8816H198.584L200.064 96.6904H199.832Z" fill="#F9C56B"/>
<path d="M199.57 96.6904L198.09 93.8816H198.322L199.832 96.6904H199.57Z" fill="#F9C76C"/>
<path d="M199.338 96.6904L197.858 93.8816H198.09L199.57 96.6904H199.338Z" fill="#F9C86D"/>
<path d="M199.106 96.6904L197.597 93.8816H197.858L199.338 96.6904H199.106Z" fill="#F9C96D"/>
<path d="M198.845 96.6904L197.365 93.8816H197.597L199.106 96.6904H198.845Z" fill="#F9CA6E"/>
<path d="M198.613 96.6904L197.103 93.8816H197.364L198.845 96.6904H198.613Z" fill="#F9CB6F"/>
<path d="M198.351 96.6904L196.871 93.8816H197.103L198.612 96.6904H198.351Z" fill="#F9CC70"/>
<path d="M198.119 96.6904L196.639 93.8816H196.871L198.351 96.6904H198.119Z" fill="#F9CD70"/>
<path d="M197.887 96.6904L196.377 93.8816H196.639L198.119 96.6904H197.887Z" fill="#F9CE71"/>
<path d="M197.626 96.6904L196.145 93.8816H196.377L197.887 96.6904H197.626Z" fill="#F9CF72"/>
<path d="M197.393 96.6904L195.884 93.8816H196.145L197.626 96.6904H197.393Z" fill="#F9D073"/>
<path d="M197.132 96.6904L195.652 93.8816H195.884L197.393 96.6904H197.132Z" fill="#FAD173"/>
<path d="M196.9 96.6904L195.391 93.8816H195.652L197.132 96.6904H196.9Z" fill="#FAD274"/>
<path d="M196.639 96.6904L195.158 93.8816H195.391L196.9 96.6904H196.639Z" fill="#FAD375"/>
<path d="M196.407 96.6904L194.926 93.8816H195.158L196.639 96.6904H196.407Z" fill="#FAD476"/>
<path d="M196.174 96.6904L194.665 93.8816H194.926L196.407 96.6904H196.174Z" fill="#FAD576"/>
<path d="M195.913 96.6904L194.433 93.8816H194.665L196.174 96.6904H195.913Z" fill="#FAD677"/>
<path d="M195.681 96.6904L194.172 93.8816H194.433L195.913 96.6904H195.681Z" fill="#FAD778"/>
<path d="M194.172 93.8816L195.681 96.6904H190.021V93.8816H194.172Z" fill="#FAD778"/>
<path d="M217.944 86.1866L217.45 85.2795H217.944V86.1866Z" fill="#F16524"/>
<path d="M217.944 86.6547L217.218 85.2795H217.45L217.944 86.1866V86.6547Z" fill="#F16524"/>
<path d="M217.944 87.1228L216.957 85.2795H217.218L217.944 86.6547V87.1228Z" fill="#F16625"/>
<path d="M217.944 87.5617L216.725 85.2795H216.957L217.944 87.1228V87.5617Z" fill="#F16725"/>
<path d="M217.944 88.0298L216.492 85.2795H216.725L217.944 87.5617V88.0298Z" fill="#F16826"/>
<path d="M217.944 88.498L216.231 85.2795H216.492L217.944 88.0298V88.498Z" fill="#F16927"/>
<path d="M217.944 88.9661L215.999 85.2795H216.231L217.944 88.498V88.9661Z" fill="#F16A27"/>
<path d="M217.944 89.405L215.738 85.2795H215.999L217.944 88.9661V89.405Z" fill="#F16B28"/>
<path d="M217.944 89.8731L215.506 85.2795H215.738L217.944 89.405V89.8731Z" fill="#F26C29"/>
<path d="M217.944 90.3412L215.244 85.2795H215.506L217.944 89.8731V90.3412Z" fill="#F26D2A"/>
<path d="M217.944 90.8094L215.012 85.2795H215.244L217.944 90.3412V90.8094Z" fill="#F26E2A"/>
<path d="M217.944 91.2775L214.78 85.2795H215.012L217.944 90.8094V91.2775Z" fill="#F26F2B"/>
<path d="M217.944 91.7164L214.519 85.2795H214.78L217.944 91.2775V91.7164Z" fill="#F2702C"/>
<path d="M217.944 92.1845L214.287 85.2795H214.519L217.944 91.7164V92.1845Z" fill="#F2702C"/>
<path d="M217.944 92.6527L214.025 85.2795H214.287L217.944 92.1845V92.6527Z" fill="#F2712D"/>
<path d="M217.944 93.1208L213.793 85.2795H214.025L217.944 92.6527V93.1208Z" fill="#F2722E"/>
<path d="M217.944 93.5597L213.561 85.2795H213.793L217.944 93.1208V93.5597Z" fill="#F2732F"/>
<path d="M217.944 94.0278L213.3 85.2795H213.561L217.944 93.5597V94.0278Z" fill="#F2742F"/>
<path d="M217.944 94.4959L213.067 85.2795H213.3L217.944 94.0278V94.4959Z" fill="#F27530"/>
<path d="M217.915 94.9056L212.806 85.2795H213.067L217.944 94.4959V94.9056H217.915Z" fill="#F27631"/>
<path d="M217.683 94.9056L212.574 85.2795H212.806L217.915 94.9056H217.683Z" fill="#F27732"/>
<path d="M217.421 94.9056L212.342 85.2795H212.574L217.683 94.9056H217.421Z" fill="#F37832"/>
<path d="M217.189 94.9056L212.081 85.2795H212.342L217.421 94.9056H217.189Z" fill="#F37933"/>
<path d="M216.928 94.9056L211.848 85.2795H212.081L217.189 94.9056H216.928Z" fill="#F37A34"/>
<path d="M216.696 94.9056L211.587 85.2795H211.848L216.928 94.9056H216.696Z" fill="#F37B34"/>
<path d="M216.464 94.9056L211.355 85.2795H211.587L216.696 94.9056H216.464Z" fill="#F37C35"/>
<path d="M216.202 94.9056L211.123 85.2795H211.355L216.464 94.9056H216.202Z" fill="#F37D36"/>
<path d="M215.97 94.9056L210.862 85.2795H211.123L216.202 94.9056H215.97Z" fill="#F37E37"/>
<path d="M215.709 94.9056L210.629 85.2795H210.862L215.97 94.9056H215.709Z" fill="#F37F37"/>
<path d="M215.477 94.9056L210.368 85.2795H210.629L215.709 94.9056H215.477Z" fill="#F38038"/>
<path d="M215.244 94.9056L210.136 85.2795H210.368L215.477 94.9056H215.244Z" fill="#F38139"/>
<path d="M214.983 94.9056L209.904 85.2795H210.136L215.244 94.9056H214.983Z" fill="#F3823A"/>
<path d="M214.751 94.9056L209.642 85.2795H209.904L214.983 94.9056H214.751Z" fill="#F3833A"/>
<path d="M214.49 94.9056L209.41 85.2795H209.642L214.751 94.9056H214.49Z" fill="#F3843B"/>
<path d="M214.257 94.9056L209.149 85.2795H209.41L214.49 94.9056H214.257Z" fill="#F4853C"/>
<path d="M214.025 94.9056L208.917 85.2795H209.149L214.258 94.9056H214.025Z" fill="#F4863D"/>
<path d="M213.764 94.9056L208.656 85.2795H208.917L214.025 94.9056H213.764Z" fill="#F4873D"/>
<path d="M213.532 94.9056L208.423 85.2795H208.656L213.764 94.9056H213.532Z" fill="#F4883E"/>
<path d="M213.271 94.9056L208.191 85.2795H208.423L213.532 94.9056H213.271Z" fill="#F4893F"/>
<path d="M213.039 94.9056L207.93 85.2795H208.191L213.271 94.9056H213.039Z" fill="#F48A40"/>
<path d="M212.806 94.9056L207.698 85.2795H207.93L213.039 94.9056H212.806Z" fill="#F48B40"/>
<path d="M212.545 94.9056L207.437 85.2795H207.698L212.806 94.9056H212.545Z" fill="#F48C41"/>
<path d="M212.313 94.9056L207.204 85.2795H207.436L212.545 94.9056H212.313Z" fill="#F48D42"/>
<path d="M212.051 94.9056L206.972 85.2795H207.204L212.313 94.9056H212.051Z" fill="#F48E43"/>
<path d="M211.819 94.9056L206.711 85.2795H206.972L212.051 94.9056H211.819Z" fill="#F48F43"/>
<path d="M211.587 94.9056L206.479 85.2795H206.711L211.819 94.9056H211.587Z" fill="#F49044"/>
<path d="M211.326 94.9056L206.217 85.2795H206.479L211.587 94.9056H211.326Z" fill="#F59145"/>
<path d="M211.094 94.9056L205.985 85.2795H206.217L211.326 94.9056H211.094Z" fill="#F59245"/>
<path d="M210.832 94.9056L205.753 85.2795H205.985L211.094 94.9056H210.832Z" fill="#F59346"/>
<path d="M210.6 94.9056L205.492 85.2795H205.753L210.832 94.9056H210.6Z" fill="#F59447"/>
<path d="M210.339 94.9056L205.26 85.2795H205.492L210.6 94.9056H210.339Z" fill="#F59548"/>
<path d="M210.107 94.9056L204.998 85.2795H205.26L210.339 94.9056H210.107Z" fill="#F59648"/>
<path d="M209.875 94.9056L204.766 85.2795H204.998L210.107 94.9056H209.875Z" fill="#F59849"/>
<path d="M209.613 94.9056L204.534 85.2795H204.766L209.875 94.9056H209.613Z" fill="#F5994A"/>
<path d="M209.381 94.9056L204.273 85.2795H204.534L209.613 94.9056H209.381Z" fill="#F59A4B"/>
<path d="M209.12 94.9056L204.04 85.2795H204.272L209.381 94.9056H209.12Z" fill="#F59B4B"/>
<path d="M208.888 94.9056L203.779 85.2795H204.04L209.12 94.9056H208.888Z" fill="#F59C4C"/>
<path d="M208.655 94.9056L203.547 85.2795H203.779L208.888 94.9056H208.655Z" fill="#F59D4D"/>
<path d="M208.394 94.9056L203.286 85.2795H203.547L208.655 94.9056H208.394Z" fill="#F59E4E"/>
<path d="M208.162 94.9056L203.053 85.2795H203.286L208.394 94.9056H208.162Z" fill="#F69F4E"/>
<path d="M207.901 94.9056L202.821 85.2795H203.053L208.162 94.9056H207.901Z" fill="#F6A04F"/>
<path d="M207.669 94.9056L202.763 85.6599V85.2795H202.821L207.901 94.9056H207.669Z" fill="#F6A150"/>
<path d="M207.436 94.9056L202.763 86.0988V85.6599L207.669 94.9056H207.436Z" fill="#F6A251"/>
<path d="M207.175 94.9057L202.763 86.567V86.0989L207.436 94.9057H207.175Z" fill="#F6A351"/>
<path d="M206.943 94.9055L202.763 87.035V86.5669L207.175 94.9055H206.943Z" fill="#F6A452"/>
<path d="M206.682 94.9057L202.763 87.5033V87.0352L206.943 94.9057H206.682Z" fill="#F6A553"/>
<path d="M206.449 94.9056L202.763 87.942V87.5032L206.682 94.9056H206.449Z" fill="#F6A654"/>
<path d="M206.217 94.9056L202.763 88.4103V87.9421L206.449 94.9056H206.217Z" fill="#F6A754"/>
<path d="M205.956 94.9055L202.763 88.8783V88.4102L206.217 94.9055H205.956Z" fill="#F6A855"/>
<path d="M205.724 94.9057L202.763 89.3466V88.8784L205.956 94.9057H205.724Z" fill="#F6A956"/>
<path d="M205.463 94.9055L202.763 89.7853V89.3464L205.724 94.9055H205.463Z" fill="#F6AA57"/>
<path d="M205.23 94.9056L202.763 90.2535V89.7854L205.463 94.9056H205.23Z" fill="#F7AB57"/>
<path d="M204.998 94.9055L202.763 90.7216V90.2534L205.23 94.9055H204.998Z" fill="#F7AC58"/>
<path d="M204.737 94.9056L202.763 91.1898V90.7217L204.998 94.9056H204.737Z" fill="#F7AD59"/>
<path d="M204.505 94.9055L202.763 91.6578V91.1897L204.737 94.9055H204.505Z" fill="#F7AE5A"/>
<path d="M204.244 94.9056L202.763 92.0968V91.658L204.505 94.9056H204.244Z" fill="#F7AF5A"/>
<path d="M204.011 94.9055L202.763 92.5648V92.0967L204.244 94.9055H204.011Z" fill="#F7B05B"/>
<path d="M203.75 94.9056L202.763 93.0331V92.5649L204.011 94.9056H203.75Z" fill="#F7B15C"/>
<path d="M203.518 94.9055L202.763 93.5011V93.033L203.75 94.9055H203.518Z" fill="#F7B25D"/>
<path d="M203.286 94.9056L202.763 93.9401V93.5012L203.518 94.9056H203.286Z" fill="#F7B35D"/>
<path d="M203.024 94.9055L202.763 94.4081V93.9399L203.286 94.9055H203.024Z" fill="#F7B45E"/>
<path d="M202.792 94.9056L202.763 94.8763V94.4082L203.024 94.9056H202.792Z" fill="#F7B55F"/>
<path d="M202.763 94.8762L202.793 94.9055H202.763V94.8762Z" fill="#F7B660"/>
</g>
<path d="M118.065 85.2795H119.226L118.443 89.0246C118.849 88.4394 119.517 87.9713 120.475 87.9713C121.781 87.9713 122.535 88.8783 122.535 90.3705C122.535 92.36 121.461 94.6714 119.168 94.6714C118.21 94.6714 117.659 94.2326 117.456 93.7059C117.398 93.9985 117.311 94.3789 117.253 94.5252H116.121C116.208 94.2033 116.324 93.5889 116.498 92.8282L118.094 85.2502L118.065 85.2795ZM121.316 90.4875C121.316 89.522 120.91 88.9953 120.039 88.9953C118.907 88.9953 118.152 90.0194 117.891 91.3652C117.601 92.7989 117.978 93.6767 119.139 93.6767C120.649 93.6767 121.316 91.8334 121.316 90.4875Z" fill="white"/>
<path d="M124.799 88.1177C125.148 90.9557 125.38 92.9746 125.409 93.6183C125.757 92.9161 126.541 91.1605 128.108 88.1177H129.356L125.815 94.9056C124.712 97.0122 124.103 97.1878 122.884 97.1878C122.622 97.1878 122.303 97.1585 122.129 97.1L122.361 96.076C122.361 96.076 122.651 96.1345 122.942 96.1345C123.754 96.1345 124.045 95.7834 124.567 94.9056L123.609 88.1177H124.77H124.799Z" fill="white"/>
<path d="M224.329 0.48877H15.7487C7.34864 0.48877 0.539062 7.35287 0.539062 15.8202V57.8352C0.539062 66.3025 7.34864 73.1666 15.7487 73.1666H224.329C232.729 73.1666 239.539 66.3025 239.539 57.8352V15.8202C239.539 7.35287 232.729 0.48877 224.329 0.48877Z" fill="#1D53B4"/>
<path d="M79.4608 36.1255H70.6949C69.0114 36.1255 67.6182 37.5006 67.6182 39.2269C67.6182 40.9531 68.9824 42.3283 70.6949 42.3283H79.4608C81.1443 42.3283 82.5375 40.9531 82.5375 39.2269C82.5375 37.5006 81.1733 36.1255 79.4608 36.1255Z" fill="#FAFCF8"/>
<path d="M97.7472 26.4116C99.3146 25.5338 100.998 25.0657 102.769 25.0657C104.307 25.0657 105.758 25.4461 107.065 26.1775C107.79 26.5872 108.487 27.0553 109.154 27.5819C109.735 28.0208 110.432 28.2841 111.157 28.2841C111.999 28.2841 112.812 27.933 113.392 27.3186L113.566 27.1431C114.147 26.5286 114.466 25.6801 114.437 24.8316C114.408 23.9832 114.06 23.1932 113.421 22.6373C113.073 22.3154 112.696 22.0228 112.289 21.701C111.07 20.794 109.619 20.0333 108.022 19.4774C106.397 18.8922 104.626 18.5996 102.798 18.5996C100.563 18.5996 98.3857 19.0385 96.3539 19.9162C94.3511 20.794 92.5225 22.0228 90.9551 23.6028C89.3877 25.1827 88.1686 27.0553 87.2688 29.1911C86.398 31.327 85.9336 33.6677 85.9336 36.1839C85.9336 39.7242 86.6592 42.8841 88.1105 45.5173C89.5618 48.1799 91.5356 50.2572 94.0028 51.7201C96.47 53.183 99.2565 53.9145 102.333 53.9145C104.104 53.9145 105.816 53.6804 107.384 53.2123C108.951 52.7442 110.373 52.159 111.593 51.4275C111.97 51.1935 112.318 50.9594 112.667 50.7253C114.002 49.7891 114.35 47.9458 113.508 46.5121C112.928 45.5758 111.941 45.0199 110.867 45.0199C110.257 45.0199 109.677 45.1955 109.154 45.5466C108.748 45.8099 108.284 46.0732 107.79 46.3366C106.484 47.0388 104.946 47.3899 103.204 47.3899C101.317 47.3899 99.5178 46.9803 97.8633 46.161C96.2378 45.3418 94.9317 44.1129 93.9448 42.4452C92.9579 40.7775 92.4644 38.6709 92.4644 36.1546C92.4644 33.8432 92.9579 31.8537 93.9157 30.2152C94.8736 28.5767 96.1798 27.2894 97.7472 26.3823V26.4116Z" fill="#FAFCF8"/>
<path d="M138.267 28.1672C136.932 27.1724 135.046 26.6457 132.694 26.6457C130.808 26.6457 129.095 27.1431 127.528 28.1087C126.657 28.6646 125.902 29.2497 125.235 29.9227V20.0919C125.235 18.3656 123.842 16.9905 122.158 16.9905C120.475 16.9905 119.052 18.3949 119.052 20.0919V50.3451C119.052 52.0713 120.445 53.4464 122.158 53.4464C123.871 53.4464 125.235 52.042 125.235 50.3451V37.6762C125.235 36.7106 125.467 35.8621 125.989 35.1014C126.483 34.3115 127.18 33.6678 128.05 33.1996C128.921 32.7315 129.937 32.4682 131.127 32.4682C131.301 32.4682 131.504 32.4682 131.679 32.4682C132.607 32.4682 133.333 32.6437 133.855 33.0241C134.494 33.4922 134.929 34.1066 135.22 34.9259C135.51 35.8036 135.655 36.8277 135.655 37.9395V50.3743C135.655 52.1006 137.048 53.4757 138.732 53.4757C140.415 53.4757 141.809 52.0713 141.809 50.3743V37.6176C141.809 35.6573 141.547 33.8433 141.054 32.2341C140.531 30.5664 139.574 29.1912 138.238 28.1964L138.267 28.1672Z" fill="#FAFCF8"/>
<path d="M164.884 28.2549C163.085 27.1724 161.082 26.6165 158.876 26.6165C156.496 26.6165 154.29 27.1724 152.287 28.2842C150.284 29.396 148.63 31.0052 147.411 33.0826C146.192 35.1599 145.582 37.6761 145.582 40.5727C145.582 43.1182 146.163 45.4296 147.324 47.4484C148.485 49.4673 150.11 51.0765 152.171 52.2176C154.232 53.3586 156.612 53.9438 159.311 53.9438H159.369C161.343 53.9438 163.259 53.5342 165.087 52.7442C166.016 52.3346 166.858 51.8957 167.584 51.4568C168.222 51.0472 168.687 50.4035 168.832 49.6428C168.977 48.8821 168.832 48.1214 168.425 47.4777C167.903 46.6877 167.032 46.2196 166.103 46.2196C165.552 46.2196 165 46.3951 164.536 46.6877C164.246 46.8633 163.955 47.0681 163.636 47.2436C162.678 47.8288 161.372 48.1214 159.776 48.1214C157.57 48.1214 155.712 47.507 154.29 46.3074C153.042 45.2541 152.229 43.8789 151.881 42.1527H167.961C169.47 42.1527 170.719 40.9238 170.748 39.4024C170.748 36.8862 170.225 34.6625 169.151 32.7607C168.106 30.8589 166.655 29.3375 164.855 28.2549H164.884ZM152.142 36.9154C152.577 35.4232 153.332 34.3114 154.377 33.6677C155.654 32.8778 157.163 32.4681 158.876 32.4681C159.805 32.4681 160.676 32.6729 161.488 33.0826C162.301 33.4922 162.998 34.0773 163.549 34.8088C164.014 35.4525 164.304 36.1547 164.449 36.9154H152.142Z" fill="#FAFCF8"/>
<path d="M182.706 33.4337C183.78 32.7608 185.028 32.4097 186.364 32.4097C187.496 32.4097 188.686 32.7608 189.905 33.4922C190.427 33.8141 190.921 34.1359 191.356 34.487C191.879 34.9259 192.575 35.1892 193.243 35.1892C194.085 35.1892 194.868 34.8088 195.449 34.1066C196.349 32.9656 196.29 31.3271 195.275 30.2738C194.462 29.4546 193.475 28.7231 192.314 28.1087C190.427 27.1431 188.279 26.6458 185.87 26.6458C183.461 26.6458 181.313 27.2602 179.397 28.4598C177.482 29.6594 175.972 31.2978 174.84 33.3459C173.737 35.394 173.186 37.7347 173.186 40.2802C173.186 42.8257 173.737 45.1371 174.84 47.2144C175.943 49.2625 177.482 50.9302 179.397 52.1298C181.313 53.3294 183.49 53.9438 185.87 53.9438C187.379 53.9438 188.86 53.7098 190.224 53.2124C191.588 52.7442 192.836 52.1006 193.939 51.3106C194.346 51.018 194.694 50.7254 195.042 50.4328C196.174 49.4088 196.32 47.6825 195.333 46.483C194.781 45.81 193.997 45.4296 193.127 45.4296C192.459 45.4296 191.82 45.6637 191.298 46.1026C190.921 46.4244 190.514 46.7463 190.079 47.0389C189.034 47.7996 187.815 48.1507 186.364 48.1507C185.115 48.1507 183.925 47.7996 182.822 47.1266C181.719 46.4537 180.82 45.4882 180.123 44.3178C179.455 43.1475 179.107 41.7723 179.107 40.2509C179.107 38.7295 179.426 37.3543 180.065 36.184C180.704 35.0137 181.574 34.0774 182.648 33.4044L182.706 33.4337Z" fill="#FAFCF8"/>
<path d="M220.643 48.4433L212.487 38.9051L219.511 32.2634C220.382 31.4149 220.672 30.1861 220.208 29.0742C219.773 27.9332 218.728 27.231 217.508 27.231C216.754 27.231 216.028 27.5235 215.477 28.0795L206.101 37.4421V20.1212C206.101 18.3949 204.708 17.0198 203.025 17.0198C201.341 17.0198 199.948 18.4242 199.948 20.1212V50.3743C199.948 52.1006 201.341 53.4757 203.025 53.4757C204.708 53.4757 206.101 52.0713 206.101 50.3743V44.9323L208.075 43.0597L216.057 52.4224C216.638 53.0954 217.479 53.4757 218.35 53.4757C219.54 53.4757 220.585 52.8028 221.108 51.691C221.601 50.6084 221.427 49.3503 220.643 48.4433Z" fill="#FAFCF8"/>
<path d="M56.1529 28.2256C54.3533 27.1431 52.3505 26.5872 50.1445 26.5872C47.7644 26.5872 45.5584 27.1431 43.5556 28.2549C41.5528 29.3667 39.8983 30.9759 38.6792 33.0533C37.4601 35.1306 36.8506 37.6468 36.8506 40.5434C36.8506 43.0889 37.4311 45.4003 38.5921 47.4191C39.7532 49.438 41.3786 51.0472 43.4395 52.1883C45.5003 53.3293 47.8805 53.9145 50.5799 53.9145H50.6379C52.6117 53.9145 54.5274 53.5049 56.356 52.7149C57.2849 52.3053 58.1266 51.8664 58.8523 51.4275C59.4909 51.0179 59.9553 50.3742 60.1004 49.6135C60.2746 48.8528 60.1004 48.0921 59.694 47.4484C59.1716 46.6584 58.3008 46.1903 57.372 46.1903C56.8205 46.1903 56.269 46.3658 55.8046 46.6584C55.5143 46.834 55.224 47.0388 54.9047 47.2143C53.9469 47.7995 52.6407 48.0921 51.0443 48.0921C48.8383 48.0921 46.9807 47.4777 45.5584 46.2781C44.3103 45.2248 43.5266 43.8496 43.1492 42.1234H59.2296C60.768 42.1234 61.9871 40.9238 62.0161 39.3731C62.0161 36.8569 61.4936 34.6332 60.4197 32.7314C59.3748 30.8296 57.9235 29.3082 56.1238 28.2256H56.1529ZM43.4395 36.8861C43.8749 35.3647 44.6296 34.3114 45.6745 33.6384C46.9516 32.8485 48.461 32.4388 50.1735 32.4388C51.1023 32.4388 51.9731 32.6436 52.7859 33.0533C53.5986 33.4629 54.2952 34.0481 54.8467 34.7795C55.3111 35.3939 55.6014 36.1254 55.7175 36.8861H43.4105H43.4395Z" fill="#FAFCF8"/>
<path d="M31.3067 39.5195C30.9003 41.0701 28.9266 41.4798 27.9687 40.2217L19.6092 30.8297C18.4192 29.6886 18.3901 27.7868 19.5512 26.6165C20.6832 25.4169 22.5699 25.3876 23.7309 26.558L28.2009 30.9175C31.5679 23.5444 39.1727 15.3228 52.4957 15.3228C54.1211 15.3228 55.4563 16.6686 55.4563 18.3071C55.4563 19.9456 54.1211 21.2915 52.4957 21.2915C36.7055 21.2915 32.4677 36.3303 32.2936 37.0032L31.2487 39.5487L31.3067 39.5195Z" fill="#50B746"/>
</g>
<defs>
<clipPath id="clip0_327_43">
<rect width="239" height="101" fill="white" transform="translate(0.539062 0.48877)"/>
</clipPath>
</defs>
</svg>
