<?xml version="1.0" encoding="utf-8"?>
<!-- Generator: Adobe Illustrator 28.1.0, SVG Export Plug-In . SVG Version: 6.00 Build 0)  -->
<svg version="1.1" id="Layer_1" xmlns="http://www.w3.org/2000/svg" xmlns:xlink="http://www.w3.org/1999/xlink" x="0px" y="0px"
	 viewBox="0 0 170.18 56" style="enable-background:new 0 0 170.18 56;" xml:space="preserve">
<style type="text/css">
	.st0{fill:#888888;}
	.st1{fill:#2657F2;}
	.st2{fill:url(#SVGID_1_);}
	.st3{fill:#1F4384;}
	.st4{fill:url(#SVGID_00000152986214748699114400000005283397821638513590_);}
	.st5{fill:url(#SVGID_00000128480563770642213400000014607626864356361398_);}
	.st6{fill:url(#SVGID_00000132786848703294121930000013347743935287711890_);}
	.st7{fill:#F69223;}
	.st8{fill:#1C4484;}
</style>
<g>
	<g>
		<g>
			<path class="st0" d="M24.79,54.14c-0.36,0.33-0.7,0.57-1.02,0.7C23.41,55,23,55.08,22.58,55.08c-0.5,0-0.97-0.11-1.39-0.34
				c-0.42-0.23-0.75-0.54-0.98-0.94c-0.23-0.39-0.34-0.85-0.34-1.36c0-0.73,0.26-1.35,0.78-1.85c0.51-0.5,1.16-0.75,1.91-0.75
				c0.83,0,1.58,0.32,2.24,0.94l0.7-0.64c-0.36-0.37-0.78-0.66-1.26-0.87c-0.53-0.23-1.09-0.35-1.67-0.35
				c-0.68,0-1.31,0.16-1.9,0.48c-0.58,0.32-1.04,0.74-1.35,1.26c-0.31,0.52-0.47,1.12-0.47,1.79c0,1.04,0.35,1.9,1.03,2.56
				c0.69,0.66,1.58,1,2.66,1c0.59,0,1.12-0.09,1.57-0.28c0.42-0.17,0.86-0.47,1.33-0.9L24.79,54.14z"/>
			<path class="st0" d="M35.13,49.95c-0.72-0.7-1.55-1.04-2.54-1.04c-0.65,0-1.26,0.16-1.82,0.47c-0.56,0.31-1.01,0.75-1.33,1.29
				c-0.32,0.54-0.48,1.14-0.48,1.78c0,0.97,0.34,1.79,1.04,2.5c0.7,0.7,1.55,1.05,2.6,1.05c1.01,0,1.84-0.34,2.54-1.02
				c0.7-0.69,1.05-1.51,1.05-2.5C36.19,51.48,35.84,50.65,35.13,49.95z M34.43,54.32c-0.5,0.5-1.12,0.75-1.83,0.75
				c-0.63,0-1.2-0.2-1.68-0.58c-0.63-0.49-0.95-1.17-0.95-2.01c0-0.75,0.25-1.39,0.75-1.88c0.5-0.49,1.12-0.74,1.85-0.74
				c0.72,0,1.35,0.26,1.85,0.76c0.5,0.5,0.76,1.12,0.76,1.85C35.19,53.2,34.93,53.82,34.43,54.32z"/>
			<polygon class="st0" points="44.51,54.22 44.15,53.68 41.18,49.09 40.04,49.09 40.04,55.82 41.04,55.82 41.04,50.71 41.4,51.25 
				44.37,55.82 45.52,55.82 45.52,49.09 44.51,49.09 			"/>
			<path class="st0" d="M53.3,54.18c0-0.27-0.05-0.53-0.16-0.75c-0.11-0.23-0.3-0.48-0.56-0.74c-0.11-0.11-0.43-0.38-0.96-0.8
				c-0.61-0.5-0.93-0.79-1.05-0.94c-0.11-0.14-0.17-0.29-0.17-0.45c0-0.12,0.04-0.3,0.25-0.47c0.15-0.12,0.35-0.19,0.58-0.19
				c0.39,0,0.78,0.22,1.14,0.64l0.73-0.62c-0.32-0.34-0.62-0.58-0.89-0.71c-0.3-0.15-0.62-0.23-0.96-0.23
				c-0.52,0-0.95,0.16-1.3,0.48c-0.35,0.32-0.52,0.69-0.52,1.13c0,0.3,0.11,0.61,0.32,0.92c0.22,0.33,0.73,0.8,1.51,1.42
				c0.44,0.35,0.71,0.6,0.85,0.77c0.15,0.2,0.22,0.4,0.22,0.6c0,0.23-0.11,0.44-0.31,0.61c-0.2,0.16-0.44,0.25-0.73,0.25
				c-0.49,0-0.92-0.29-1.29-0.87l-0.84,0.49c0.24,0.42,0.52,0.73,0.84,0.94c0.36,0.23,0.77,0.34,1.26,0.34
				c0.62,0,1.11-0.17,1.49-0.52C53.12,55.14,53.3,54.71,53.3,54.18z"/>
			<path class="st0" d="M60.68,53.33c0,0.52-0.04,0.85-0.12,1.04c-0.08,0.21-0.23,0.38-0.45,0.51c-0.21,0.13-0.46,0.2-0.74,0.2
				c-0.27,0-0.5-0.06-0.7-0.18c-0.2-0.12-0.35-0.28-0.43-0.48c-0.08-0.19-0.12-0.49-0.12-0.91v-4.41h-1.01v4.05
				c0,0.82,0.08,1.4,0.24,1.72c0.15,0.33,0.41,0.59,0.77,0.81c0.36,0.22,0.79,0.33,1.28,0.33c0.38,0,0.71-0.06,0.99-0.17
				c0.28-0.11,0.52-0.29,0.74-0.53c0.21-0.23,0.36-0.48,0.43-0.73c0.08-0.26,0.12-0.75,0.12-1.44v-4.05h-1.01V53.33z"/>
			<polygon class="st0" points="66.84,49.09 65.83,49.09 65.83,55.82 68.87,55.82 68.87,54.91 66.84,54.91 			"/>
			<polygon class="st0" points="71.74,50.05 73.04,50.05 73.04,55.82 74.06,55.82 74.06,50.05 75.4,50.05 75.4,49.09 71.74,49.09 
							"/>
			<path class="st0" d="M83.27,54.36l0.57,1.46h1.03l-2.67-6.73h-1.14l-2.68,6.73h1.03l0.6-1.46H83.27z M81.64,50.26l1.26,3.16
				h-2.54L81.64,50.26z"/>
			<polygon class="st0" points="93.05,54.22 92.69,53.68 89.72,49.09 88.58,49.09 88.58,55.82 89.58,55.82 89.58,50.71 89.94,51.25 
				92.91,55.82 94.06,55.82 94.06,49.09 93.05,49.09 			"/>
			<path class="st0" d="M104.5,54.82l-0.67-0.68c-0.36,0.33-0.7,0.57-1.02,0.71c-0.36,0.16-0.76,0.23-1.19,0.23
				c-0.5,0-0.97-0.11-1.39-0.34c-0.42-0.23-0.75-0.54-0.98-0.94c-0.23-0.39-0.34-0.85-0.34-1.36c0-0.73,0.26-1.35,0.78-1.85
				c0.51-0.5,1.16-0.75,1.91-0.75c0.83,0,1.58,0.32,2.24,0.94l0.7-0.64c-0.36-0.37-0.78-0.66-1.26-0.87
				c-0.53-0.23-1.09-0.35-1.67-0.35c-0.68,0-1.31,0.16-1.9,0.48c-0.58,0.32-1.04,0.74-1.35,1.26c-0.31,0.52-0.47,1.12-0.47,1.79
				c0,1.04,0.35,1.9,1.03,2.56c0.69,0.66,1.58,1,2.66,1c0.59,0,1.12-0.09,1.57-0.28C103.58,55.55,104.02,55.25,104.5,54.82z"/>
			<polygon class="st0" points="111.99,49.09 110.51,51.88 109.02,49.09 107.96,49.09 109.99,52.93 109.99,55.82 111.01,55.82 
				111.03,52.85 113.02,49.09 			"/>
			<polygon class="st0" points="122.82,49.09 121.81,49.09 121.81,55.82 124.85,55.82 124.85,54.91 122.82,54.91 			"/>
			<path class="st0" d="M129.42,55.39c0-0.16-0.05-0.29-0.17-0.4c-0.12-0.11-0.25-0.17-0.42-0.17c-0.16,0-0.3,0.05-0.41,0.17
				c-0.12,0.11-0.17,0.24-0.17,0.4c0,0.16,0.06,0.29,0.17,0.4c0.12,0.11,0.25,0.17,0.41,0.17c0.16,0,0.3-0.06,0.41-0.17
				C129.37,55.68,129.42,55.55,129.42,55.39z"/>
			<polygon class="st0" points="134.43,49.09 133.43,49.09 133.43,55.82 136.47,55.82 136.47,54.91 134.43,54.91 			"/>
			<path class="st0" d="M140.87,54.99c-0.11-0.11-0.25-0.16-0.41-0.16c-0.17,0-0.3,0.05-0.42,0.17c-0.12,0.11-0.17,0.24-0.17,0.4
				c0,0.16,0.06,0.29,0.17,0.4c0.12,0.11,0.25,0.17,0.42,0.17s0.3-0.06,0.41-0.17c0.12-0.11,0.17-0.25,0.17-0.4
				C141.04,55.23,140.99,55.1,140.87,54.99z"/>
			<path class="st0" d="M150.61,54.14c-0.37,0.33-0.7,0.56-1.02,0.7c-0.36,0.16-0.76,0.24-1.19,0.24c-0.5,0-0.97-0.11-1.39-0.34
				c-0.42-0.23-0.75-0.54-0.98-0.94c-0.23-0.39-0.35-0.85-0.35-1.36c0-0.73,0.26-1.35,0.78-1.85c0.52-0.5,1.16-0.75,1.91-0.75
				c0.83,0,1.58,0.32,2.25,0.94l0.7-0.64c-0.36-0.37-0.78-0.66-1.26-0.87c-0.53-0.23-1.09-0.35-1.67-0.35
				c-0.68,0-1.31,0.16-1.9,0.48c-0.58,0.32-1.04,0.74-1.35,1.26c-0.31,0.52-0.47,1.12-0.47,1.79c0,1.04,0.35,1.9,1.03,2.56
				c0.69,0.66,1.58,1,2.66,1c0.59,0,1.12-0.09,1.57-0.28c0.42-0.17,0.86-0.47,1.33-0.9L150.61,54.14z"/>
		</g>
		<g>
			<path class="st0" d="M3.91,42.36c0.2-0.3,0.29-0.63,0.29-0.99c0-0.38-0.09-0.7-0.28-0.98c-0.19-0.27-0.49-0.51-0.9-0.69
				l-0.3-0.14l0.26-0.19c0.24-0.17,0.41-0.36,0.52-0.56c0.1-0.19,0.15-0.41,0.15-0.65c0-0.37-0.11-0.69-0.34-0.96
				c-0.23-0.28-0.54-0.46-0.95-0.56c-0.29-0.08-0.76-0.12-1.41-0.12H0v6.73h1.86c0.56,0,1-0.08,1.3-0.23
				C3.47,42.87,3.71,42.66,3.91,42.36z M1,37.43h0.56c0.37,0,0.65,0.08,0.84,0.24c0.2,0.17,0.3,0.39,0.3,0.67
				c0,0.3-0.11,0.54-0.32,0.71c-0.2,0.17-0.5,0.25-0.89,0.25H1V37.43z M2.84,42.09c-0.24,0.17-0.66,0.25-1.29,0.25H1v-2.2h0.49
				c0.6,0,1.02,0.1,1.3,0.3c0.29,0.22,0.43,0.51,0.43,0.88C3.22,41.65,3.09,41.91,2.84,42.09z"/>
			<path class="st0" d="M11.57,40.76c0,0.51-0.04,0.84-0.12,1.04c-0.08,0.21-0.23,0.38-0.45,0.51c-0.21,0.13-0.46,0.19-0.74,0.19
				c-0.27,0-0.51-0.06-0.7-0.17c-0.2-0.12-0.35-0.28-0.43-0.48c-0.08-0.19-0.12-0.49-0.12-0.91v-4.4H8.01v4.05
				c0,0.81,0.08,1.4,0.24,1.72c0.15,0.32,0.41,0.59,0.77,0.81c0.36,0.22,0.79,0.33,1.28,0.33c0.37,0,0.71-0.06,0.99-0.17
				c0.28-0.11,0.53-0.29,0.74-0.53c0.21-0.23,0.36-0.48,0.43-0.73c0.08-0.26,0.12-0.75,0.12-1.44v-4.05h-1.01V40.76z"/>
			<path class="st0" d="M20.31,41.6c0-0.28-0.05-0.52-0.16-0.75c-0.11-0.23-0.3-0.48-0.56-0.74c-0.11-0.11-0.43-0.38-0.96-0.8
				c-0.78-0.64-0.98-0.85-1.06-0.94c-0.11-0.14-0.16-0.29-0.16-0.45c0-0.12,0.04-0.3,0.24-0.47c0.15-0.12,0.35-0.19,0.58-0.19
				c0.39,0,0.78,0.22,1.14,0.65l0.73-0.62c-0.32-0.34-0.62-0.58-0.89-0.71c-0.3-0.15-0.62-0.23-0.96-0.23
				c-0.52,0-0.95,0.16-1.3,0.48c-0.35,0.32-0.52,0.69-0.52,1.13c0,0.3,0.11,0.61,0.32,0.92c0.22,0.33,0.73,0.8,1.51,1.42
				c0.43,0.34,0.71,0.6,0.85,0.77c0.15,0.2,0.22,0.4,0.22,0.6c0,0.23-0.11,0.44-0.31,0.61c-0.2,0.17-0.44,0.25-0.73,0.25
				c-0.49,0-0.92-0.29-1.29-0.87l-0.84,0.49c0.24,0.42,0.52,0.74,0.84,0.94c0.35,0.23,0.78,0.34,1.26,0.34
				c0.62,0,1.11-0.17,1.49-0.52C20.13,42.56,20.31,42.13,20.31,41.6z"/>
			<rect x="24.07" y="36.52" class="st0" width="0.99" height="6.73"/>
			<polygon class="st0" points="33.65,41.65 33.28,41.11 30.31,36.52 29.17,36.52 29.17,43.25 30.17,43.25 30.17,38.13 30.53,38.67 
				33.5,43.25 34.65,43.25 34.65,36.52 33.65,36.52 			"/>
			<polygon class="st0" points="38.86,43.25 42.47,43.25 42.47,42.3 39.85,42.3 39.85,40.05 42.47,40.05 42.47,39.13 39.85,39.13 
				39.85,37.46 42.47,37.46 42.47,36.52 38.86,36.52 			"/>
			<path class="st0" d="M49.72,40.85c-0.11-0.23-0.3-0.48-0.56-0.74c-0.11-0.11-0.43-0.38-0.96-0.8c-0.79-0.64-0.98-0.85-1.05-0.94
				c-0.11-0.14-0.16-0.29-0.16-0.45c0-0.12,0.04-0.3,0.25-0.47c0.15-0.12,0.35-0.19,0.58-0.19c0.39,0,0.78,0.22,1.14,0.65l0.73-0.62
				c-0.32-0.34-0.62-0.58-0.89-0.71c-0.3-0.15-0.62-0.23-0.96-0.23c-0.52,0-0.95,0.16-1.3,0.48c-0.35,0.32-0.52,0.69-0.52,1.13
				c0,0.3,0.11,0.61,0.32,0.92c0.22,0.33,0.73,0.8,1.51,1.42c0.43,0.34,0.71,0.6,0.85,0.77c0.15,0.2,0.22,0.4,0.22,0.6
				c0,0.23-0.11,0.44-0.31,0.61c-0.2,0.16-0.44,0.25-0.73,0.25c-0.49,0-0.92-0.29-1.29-0.87l-0.84,0.49
				c0.24,0.42,0.52,0.74,0.84,0.94c0.35,0.23,0.78,0.34,1.26,0.34c0.62,0,1.11-0.17,1.49-0.52c0.38-0.34,0.56-0.77,0.56-1.31
				C49.88,41.33,49.83,41.08,49.72,40.85z"/>
			<path class="st0" d="M57.33,41.6c0-0.28-0.05-0.52-0.16-0.75c-0.11-0.23-0.3-0.48-0.56-0.74c-0.11-0.11-0.43-0.38-0.96-0.8
				c-0.79-0.64-0.98-0.85-1.05-0.94c-0.11-0.14-0.16-0.29-0.16-0.45c0-0.12,0.04-0.3,0.25-0.47c0.15-0.12,0.35-0.19,0.58-0.19
				c0.39,0,0.78,0.22,1.14,0.65l0.73-0.62c-0.32-0.34-0.62-0.58-0.89-0.71c-0.3-0.15-0.62-0.23-0.96-0.23
				c-0.52,0-0.95,0.16-1.3,0.48c-0.35,0.32-0.52,0.69-0.52,1.13c0,0.3,0.11,0.61,0.32,0.92c0.22,0.33,0.73,0.8,1.51,1.42
				c0.43,0.34,0.71,0.6,0.85,0.77c0.15,0.2,0.22,0.4,0.22,0.6c0,0.23-0.11,0.44-0.31,0.61c-0.2,0.17-0.44,0.25-0.73,0.25
				c-0.49,0-0.92-0.29-1.29-0.87l-0.84,0.49c0.24,0.42,0.52,0.74,0.84,0.94c0.35,0.23,0.78,0.34,1.26,0.34
				c0.62,0,1.11-0.17,1.49-0.52C57.14,42.56,57.33,42.13,57.33,41.6z"/>
			<path class="st0" d="M71.38,43.25l-1-1.03l0.76-0.67l-0.58-0.64c-0.35,0.29-0.58,0.47-0.67,0.54l-0.14,0.1l-0.12-0.12
				c-0.17-0.17-0.56-0.6-1.16-1.28l-0.12-0.13l0.13-0.12c0.61-0.58,0.85-0.9,0.94-1.06c0.13-0.22,0.19-0.44,0.19-0.69
				c0-0.29-0.14-0.6-0.41-0.9c-0.27-0.3-0.66-0.44-1.18-0.44c-0.51,0-0.9,0.15-1.17,0.45c-0.28,0.31-0.42,0.61-0.42,0.91
				c0,0.43,0.22,0.94,0.67,1.52l0.11,0.15l-0.15,0.11c-0.45,0.34-0.78,0.67-0.96,0.98c-0.18,0.31-0.27,0.64-0.27,0.98
				c0,0.45,0.15,0.8,0.46,1.09c0.31,0.29,0.71,0.43,1.23,0.43c0.62,0,1.31-0.21,2.05-0.64l0.13-0.08l0.11,0.11l0.34,0.43H71.38z
				 M67.56,37.85c0.12-0.12,0.28-0.19,0.46-0.19c0.19,0,0.35,0.06,0.47,0.17c0.12,0.12,0.19,0.26,0.19,0.44
				c0,0.29-0.2,0.61-0.62,0.96l-0.16,0.13l-0.13-0.16c-0.27-0.33-0.4-0.63-0.4-0.91C67.37,38.12,67.44,37.97,67.56,37.85z
				 M68.85,42.18c-0.48,0.27-0.88,0.4-1.21,0.4c-0.25,0-0.47-0.07-0.64-0.22c-0.22-0.19-0.27-0.39-0.27-0.53
				c0-0.36,0.27-0.75,0.81-1.19l0.15-0.12l0.12,0.15c0.46,0.56,0.82,0.96,1.07,1.2l0.18,0.18L68.85,42.18z"/>
			<polygon class="st0" points="86.19,38.92 86.94,43.25 87.9,43.25 86.73,36.52 85.68,36.52 83.82,41.89 81.98,36.52 80.93,36.52 
				79.73,43.25 80.69,43.25 81.46,38.92 81.84,38.89 83.34,43.25 84.29,43.25 85.81,38.89 			"/>
			<path class="st0" d="M95.96,41.78l0.57,1.46h1.03l-2.67-6.73h-1.14l-2.68,6.73h1.03l0.6-1.46H95.96z M94.33,37.69l1.26,3.16
				h-2.54L94.33,37.69z"/>
			<polygon class="st0" points="105.74,41.65 105.38,41.11 102.41,36.52 101.26,36.52 101.26,43.25 102.27,43.25 102.27,38.13 
				102.63,38.67 105.6,43.25 106.74,43.25 106.74,36.52 105.74,36.52 			"/>
			<path class="st0" d="M115.33,41.78l0.57,1.46h1.03l-2.67-6.73h-1.15l-2.68,6.73h1.03l0.6-1.46H115.33z M113.7,37.69l1.26,3.16
				h-2.54L113.7,37.69z"/>
			<path class="st0" d="M127.06,41.81c0.31-0.53,0.47-1.09,0.47-1.67l0-0.12h-3.3v0.89h2.24l-0.13,0.27
				c-0.22,0.45-0.51,0.79-0.88,1.01c-0.36,0.21-0.8,0.32-1.32,0.32c-0.79,0-1.47-0.26-2.01-0.77c-0.54-0.51-0.82-1.14-0.82-1.88
				c0-0.71,0.27-1.33,0.79-1.83c0.52-0.5,1.18-0.75,1.95-0.75c0.82,0,1.55,0.29,2.18,0.88l0.71-0.68c-0.39-0.38-0.78-0.65-1.18-0.82
				c-0.53-0.22-1.1-0.33-1.71-0.33c-1.16,0-2.11,0.4-2.82,1.18c-0.61,0.66-0.91,1.44-0.91,2.33c0,0.65,0.17,1.26,0.49,1.82
				c0.33,0.56,0.78,1,1.34,1.3c0.57,0.31,1.22,0.46,1.94,0.46c0.67,0,1.27-0.14,1.76-0.42C126.34,42.74,126.75,42.33,127.06,41.81z"
				/>
			<polygon class="st0" points="131.35,43.25 134.96,43.25 134.96,42.3 132.34,42.3 132.34,40.05 134.96,40.05 134.96,39.13 
				132.34,39.13 132.34,37.46 134.96,37.46 134.96,36.52 131.35,36.52 			"/>
			<polygon class="st0" points="144.73,38.92 145.49,43.25 146.44,43.25 145.27,36.52 144.22,36.52 142.36,41.89 140.52,36.52 
				139.47,36.52 138.27,43.25 139.23,43.25 140.01,38.92 140.39,38.89 141.89,43.25 142.83,43.25 144.35,38.89 			"/>
			<polygon class="st0" points="150.12,43.25 153.73,43.25 153.73,42.3 151.11,42.3 151.11,40.05 153.73,40.05 153.73,39.13 
				151.11,39.13 151.11,37.46 153.73,37.46 153.73,36.52 150.12,36.52 			"/>
			<polygon class="st0" points="162.04,41.65 161.68,41.11 158.7,36.52 157.56,36.52 157.56,43.25 158.56,43.25 158.56,38.13 
				158.93,38.67 161.9,43.25 163.04,43.25 163.04,36.52 162.04,36.52 			"/>
			<polygon class="st0" points="166.52,37.47 167.82,37.47 167.82,43.25 168.84,43.25 168.84,37.47 170.18,37.47 170.18,36.52 
				166.52,36.52 			"/>
		</g>
	</g>
	<g>
		<path class="st1" d="M5.08,15.57v4.22c0,1.55,1.84,2.82,6.06,2.82H28.4c1.16,0,1.41,0.65,1.41,1.95c0,1.26-0.25,1.95-1.41,1.95H11
			c-7.11,0-10.68-2.24-10.68-6.71V7.06c0-4.51,3.57-6.71,10.68-6.71h5.38c1.12,0,1.37,0.65,1.37,1.95c0,1.3-0.25,1.95-1.37,1.95
			h-5.23c-4.22,0-6.06,1.23-6.06,2.82v4.62H28.5c1.16,0,1.41,0.65,1.41,1.95c0,1.3-0.25,1.95-1.41,1.95H5.08z"/>
		<path class="st1" d="M40.63,4.24v20.71c0,1.37-0.83,1.7-2.42,1.7c-1.55,0-2.38-0.32-2.38-1.7V4.24H24.97
			c-1.15,0-1.41-0.65-1.41-1.95c0-1.3,0.25-1.95,1.41-1.95h26.56c1.15,0,1.41,0.65,1.41,1.95c0,1.3-0.25,1.95-1.41,1.95H40.63z"/>
		<path class="st1" d="M59.87,24.96c0,1.37-0.83,1.7-2.42,1.7c-1.55,0-2.38-0.32-2.38-1.7V1.9c0-1.37,0.83-1.7,2.38-1.7
			c1.59,0,2.42,0.32,2.42,1.7V24.96z"/>
		<path class="st1" d="M93.71,0.2c-1.59,0-2.42,0.32-2.42,1.7v9.78H68.06V1.9c0-1.37-0.84-1.7-2.42-1.7c-1.55,0-2.38,0.32-2.38,1.7
			v23.05c0,1.37,0.83,1.7,2.38,1.7c1.58,0,2.42-0.33,2.42-1.7v-9.38h23.24v0.02c1.04,0.06,2.38,0.08,4.14,0.04
			c0.22-0.01,0.44-0.02,0.66-0.02V1.9C96.09,0.53,95.27,0.2,93.71,0.2z M91.29,18.55v6.4c0,1.37,0.83,1.7,2.42,1.7
			c1.55,0,2.38-0.33,2.38-1.7v-5.54C95.42,19.42,93.43,19.36,91.29,18.55z M95.05,18.23c-1.71-0.47-2.83-0.87-3.75-1.24v0.41
			c1.31,0.43,2.73,0.72,4.08,0.92C95.27,18.29,95.16,18.26,95.05,18.23z"/>
		<path class="st1" d="M134.68,23.94l-9.52-13.58c-0.61,0.57-2,1.79-3.36,2.59l1.98,2.91h-14.9l2.47-3.83l4.78-7.39l2.33,3.42
			c1.11-0.67,2.28-1.42,3.5-2.25l-3.02-4.31c-0.57-0.79-1.4-1.27-2.81-1.27c-1.45,0-2.31,0.47-2.86,1.27l-8.34,12.65l-2.98,4.54
			l-3.47,5.26c-0.15,0.26-0.26,0.5-0.26,0.8c0,1.12,1.41,1.94,2.6,1.94c0.61,0,1.23-0.21,1.55-0.72l4.01-6.2h20.06l4.26,6.2
			c0.36,0.51,0.93,0.72,1.59,0.72c1.22,0,2.63-0.83,2.63-1.91C134.93,24.52,134.86,24.24,134.68,23.94z"/>
		<path class="st1" d="M169.86,19.8c0,4.47-3.54,6.71-10.68,6.71h-20.46c-1.12,0-1.66-0.58-1.66-1.7V2c0-1.12,0.54-1.66,1.66-1.66
			h20.46c7.14,0,10.68,2.2,10.68,6.71V19.8z M141.86,22.61h17.18c4.22,0,6.1-1.26,6.1-2.82V7.06c0-1.59-1.88-2.82-6.1-2.82h-17.18
			V22.61z"/>
		<linearGradient id="SVGID_1_" gradientUnits="userSpaceOnUse" x1="133.4292" y1="0.3773" x2="97.5152" y2="19.5269">
			<stop  offset="0" style="stop-color:#F16524"/>
			<stop  offset="1" style="stop-color:#FAD778"/>
		</linearGradient>
		<path class="st2" d="M122.61,0l2.26,3.77c-0.87,0.68-1.64,1.16-2.5,1.76c-0.14,0.1-0.28,0.2-0.41,0.29
			c-1.22,0.84-2.4,1.58-3.5,2.25c-3.3,1.99-5.97,3.26-7.11,3.97l-2.47,3.83h6.5c1.38-0.89,2.73-1.8,4-2.67
			c0.6-0.42,1.18-0.83,1.74-1.22c1.3-0.93,2.47-1.77,3.42-2.48c0.16-0.11,0.31-0.23,0.45-0.34c1.34-0.99,2.15-1.61,2.15-1.61
			l3.01,3.77L134.03,0H122.61z M96.09,15.34c-2.81,0.22-4.8,0.25-4.8,0.25l-3.57-0.02c0.58,0.47,1.26,0.87,2,1.22
			c0.5,0.23,1.02,0.43,1.57,0.6c1.31,0.43,2.73,0.72,4.08,0.92c0.31,0.04,0.61,0.08,0.91,0.12c3.09,0.35,5.66,0.25,5.66,0.25
			l2.98-4.54C101.9,14.79,98.66,15.14,96.09,15.34z"/>
	</g>
</g>
</svg>
