<?xml version="1.0" encoding="UTF-8"?>
<svg id="Layer_1" data-name="Layer 1" xmlns="http://www.w3.org/2000/svg" xmlns:xlink="http://www.w3.org/1999/xlink" viewBox="0 0 172.62 56">
  <defs>
    <style>
      .cls-1 {
        fill: url(#linear-gradient);
      }

      .cls-1, .cls-2, .cls-3 {
        stroke-width: 0px;
      }

      .cls-2 {
        fill: #898989;
      }

      .cls-3 {
        fill: #1e4385;
      }
    </style>
    <linearGradient id="linear-gradient" x1="135.53" y1=".38" x2="98.96" y2="19.88" gradientUnits="userSpaceOnUse">
      <stop offset="0" stop-color="#f26624"/>
      <stop offset="1" stop-color="#fbd878"/>
    </linearGradient>
  </defs>
  <g>
    <path class="cls-2" d="M27.53,54.2c-.35.32-.68.55-.99.68-.35.15-.74.23-1.15.23-.49,0-.94-.11-1.34-.33-.41-.22-.72-.53-.94-.91s-.33-.82-.33-1.31c0-.7.25-1.31.75-1.79.5-.48,1.12-.73,1.85-.73.8,0,1.53.31,2.17.91l.68-.62c-.35-.36-.76-.64-1.21-.84-.51-.23-1.05-.34-1.61-.34-.65,0-1.27.15-1.83.46-.56.31-1,.71-1.3,1.22s-.45,1.09-.45,1.73c0,1,.34,1.83,1,2.47.66.64,1.53.96,2.57.96.57,0,1.08-.09,1.52-.27.4-.17.83-.46,1.29-.87l-.65-.66Z"/>
    <path class="cls-2" d="M37.52,50.16c-.69-.67-1.49-1-2.45-1-.63,0-1.22.15-1.76.46-.54.3-.97.72-1.28,1.24-.31.52-.47,1.1-.47,1.72,0,.94.33,1.73,1,2.41.67.68,1.5,1.01,2.51,1.01s1.78-.32,2.46-.99c.68-.67,1.01-1.46,1.01-2.42s-.34-1.77-1.03-2.44ZM36.85,54.37c-.49.48-1.08.73-1.77.73-.61,0-1.16-.19-1.62-.56-.61-.48-.91-1.13-.91-1.95,0-.73.24-1.34.73-1.81.48-.48,1.08-.72,1.79-.72s1.3.25,1.79.74c.49.48.73,1.09.73,1.79s-.25,1.3-.73,1.79Z"/>
    <polygon class="cls-2" points="46.6 54.28 46.24 53.76 43.37 49.33 42.27 49.33 42.27 55.83 43.24 55.83 43.24 50.88 43.59 51.4 46.46 55.83 47.56 55.83 47.56 49.33 46.6 49.33 46.6 54.28"/>
    <path class="cls-2" d="M55.09,54.24c0-.26-.05-.51-.16-.73-.1-.22-.29-.46-.54-.71-.11-.11-.42-.37-.92-.78-.59-.48-.9-.76-1.02-.91-.11-.13-.16-.28-.16-.44,0-.12.04-.29.24-.45.15-.12.33-.18.56-.18.38,0,.75.21,1.1.62l.7-.6c-.31-.33-.6-.56-.86-.69-.29-.14-.6-.22-.92-.22-.5,0-.92.15-1.26.46-.34.31-.5.66-.5,1.09,0,.29.1.59.31.89.22.32.71.78,1.46,1.37.42.33.69.58.82.75.14.19.22.38.22.58,0,.23-.1.43-.3.59-.19.16-.43.24-.71.24-.47,0-.89-.28-1.24-.84l-.81.48c.23.4.51.71.82.91.34.22.74.33,1.21.33.6,0,1.07-.16,1.44-.5.37-.33.54-.75.54-1.26Z"/>
    <path class="cls-2" d="M62.22,53.42c0,.5-.04.82-.11,1-.08.2-.23.37-.43.49-.2.13-.44.19-.72.19s-.49-.06-.67-.17c-.19-.11-.33-.27-.42-.46-.08-.18-.12-.47-.12-.88v-4.26h-.97v3.91c0,.79.08,1.35.23,1.66.15.31.39.57.74.78.35.21.77.31,1.24.31.36,0,.69-.06.96-.16.27-.11.51-.28.71-.51.21-.22.35-.46.42-.7.08-.25.11-.72.11-1.39v-3.91h-.97v4.09Z"/>
    <polygon class="cls-2" points="68.17 49.33 67.2 49.33 67.2 55.83 70.13 55.83 70.13 54.95 68.17 54.95 68.17 49.33"/>
    <polygon class="cls-2" points="72.9 50.25 74.16 50.25 74.16 55.83 75.15 55.83 75.15 50.25 76.44 50.25 76.44 49.33 72.9 49.33 72.9 50.25"/>
    <path class="cls-2" d="M84.05,54.41l.55,1.41h.99l-2.58-6.5h-1.11l-2.59,6.5h1l.58-1.41h3.15ZM82.47,50.46l1.22,3.05h-2.45l1.23-3.05Z"/>
    <polygon class="cls-2" points="93.5 54.28 93.15 53.76 90.28 49.33 89.18 49.33 89.18 55.83 90.14 55.83 90.14 50.88 90.49 51.4 93.36 55.83 94.47 55.83 94.47 49.33 93.5 49.33 93.5 54.28"/>
    <path class="cls-2" d="M104.56,54.86l-.65-.66c-.35.32-.68.55-.99.68-.35.15-.74.23-1.15.23-.49,0-.94-.11-1.34-.33-.41-.22-.72-.53-.94-.91s-.33-.82-.33-1.31c0-.7.25-1.31.75-1.79.5-.48,1.12-.73,1.85-.73.8,0,1.53.31,2.17.91l.68-.62c-.35-.36-.76-.64-1.21-.84-.51-.23-1.05-.34-1.61-.34-.65,0-1.27.15-1.83.46-.56.31-1,.71-1.3,1.22s-.45,1.09-.45,1.73c0,1,.34,1.83,1,2.47.66.64,1.53.96,2.57.96.57,0,1.08-.09,1.52-.27.4-.17.83-.46,1.29-.87Z"/>
    <polygon class="cls-2" points="111.8 49.33 110.37 52.02 108.93 49.33 107.91 49.33 109.87 53.04 109.87 55.83 110.85 55.83 110.87 52.95 112.8 49.33 111.8 49.33"/>
    <polygon class="cls-2" points="122.26 49.33 121.29 49.33 121.29 55.83 124.23 55.83 124.23 54.95 122.26 54.95 122.26 49.33"/>
    <path class="cls-2" d="M128.65,55.41c0-.15-.05-.28-.17-.39-.11-.11-.24-.16-.4-.16s-.29.05-.4.16c-.11.11-.17.23-.17.39s.05.28.17.39c.11.11.24.16.4.16s.29-.05.4-.16c.11-.11.17-.24.17-.39Z"/>
    <polygon class="cls-2" points="133.49 49.33 132.52 49.33 132.52 55.83 135.46 55.83 135.46 54.95 133.49 54.95 133.49 49.33"/>
    <path class="cls-2" d="M139.71,55.02c-.11-.11-.24-.16-.4-.16s-.29.05-.4.16c-.11.11-.17.23-.17.39s.05.28.17.39c.11.11.24.16.4.16s.29-.05.4-.16c.11-.11.17-.24.17-.39s-.05-.28-.17-.39Z"/>
    <path class="cls-2" d="M149.12,54.2c-.35.32-.68.55-.99.68-.35.15-.74.23-1.15.23-.49,0-.94-.11-1.34-.33-.41-.22-.73-.53-.94-.91-.22-.38-.33-.82-.33-1.31,0-.7.25-1.31.75-1.79.5-.48,1.12-.73,1.85-.73.8,0,1.53.31,2.17.91l.68-.62c-.35-.36-.76-.64-1.21-.84-.51-.23-1.05-.34-1.61-.34-.65,0-1.27.16-1.83.46-.56.31-1,.72-1.3,1.22-.3.5-.45,1.09-.45,1.73,0,1,.34,1.83,1,2.47.66.64,1.53.96,2.57.96.57,0,1.08-.09,1.52-.27.4-.17.83-.46,1.29-.87l-.65-.66Z"/>
    <path class="cls-2" d="M4.26,42.81c.19-.29.28-.6.28-.96s-.09-.68-.27-.94c-.18-.26-.47-.49-.87-.67l-.29-.13.26-.18c.23-.17.4-.35.5-.54.1-.19.15-.4.15-.63,0-.36-.11-.66-.33-.93-.23-.27-.53-.44-.92-.55-.28-.08-.74-.12-1.37-.12H.49v6.5h1.8c.54,0,.96-.07,1.26-.22.3-.14.53-.35.72-.64ZM1.46,38.05h.54c.35,0,.63.08.81.23.2.16.29.38.29.65,0,.29-.1.52-.31.69-.19.16-.48.24-.86.24h-.48v-1.81ZM3.23,42.56c-.23.16-.64.24-1.24.24h-.53v-2.13h.47c.58,0,.99.1,1.26.29.28.21.42.49.42.85,0,.32-.13.58-.37.75Z"/>
    <path class="cls-2" d="M11.67,41.27c0,.49-.04.81-.11,1-.08.2-.23.37-.43.49-.2.12-.44.19-.72.19s-.49-.06-.67-.17c-.19-.11-.33-.27-.42-.47-.08-.18-.12-.47-.12-.88v-4.26h-.97v3.91c0,.79.08,1.35.23,1.67.15.31.4.57.74.78.35.21.77.32,1.24.32.36,0,.68-.06.96-.17.27-.11.51-.28.71-.51.21-.22.35-.46.42-.7.08-.25.11-.72.11-1.39v-3.91h-.97v4.09Z"/>
    <path class="cls-2" d="M19.96,41.36c-.1-.22-.29-.46-.54-.71-.11-.11-.42-.37-.92-.78-.76-.62-.94-.82-1.02-.91-.1-.13-.16-.28-.16-.44,0-.12.04-.29.24-.45.15-.12.33-.18.56-.18.38,0,.75.21,1.1.62l.7-.6c-.31-.33-.6-.56-.86-.69-.29-.14-.6-.22-.92-.22-.51,0-.92.15-1.26.46-.34.31-.5.66-.5,1.09,0,.29.1.59.31.89.21.31.7.78,1.46,1.37.42.33.69.57.82.75.14.19.22.38.22.58,0,.23-.1.43-.3.59-.19.16-.43.24-.71.24-.47,0-.89-.28-1.25-.84l-.81.48c.23.4.51.71.82.91.34.22.75.33,1.21.33.6,0,1.07-.16,1.44-.5.36-.33.54-.75.54-1.26,0-.27-.05-.5-.15-.73Z"/>
    <path class="cls-2" d="M27.31,42.09c0-.27-.05-.5-.16-.73-.1-.22-.29-.46-.54-.71-.11-.11-.42-.37-.92-.78-.76-.62-.94-.82-1.02-.91-.1-.14-.16-.28-.16-.44,0-.12.04-.29.24-.45.15-.12.33-.18.56-.18.38,0,.75.21,1.1.62l.7-.6c-.31-.33-.6-.56-.86-.69-.29-.14-.6-.22-.92-.22-.51,0-.92.15-1.26.46-.34.31-.5.66-.5,1.09,0,.29.1.59.31.89.22.31.71.78,1.46,1.37.42.33.69.58.82.75.14.19.22.38.22.58,0,.23-.1.43-.3.59-.19.16-.43.24-.71.24-.47,0-.89-.28-1.24-.84l-.82.48c.23.4.51.71.82.91.34.22.75.33,1.21.33.6,0,1.07-.16,1.44-.5.37-.33.54-.75.54-1.26Z"/>
    <rect class="cls-2" x="30.94" y="37.18" width=".96" height="6.5"/>
    <polygon class="cls-2" points="40.2 42.13 39.85 41.61 36.97 37.18 35.87 37.18 35.87 43.68 36.84 43.68 36.84 38.73 37.19 39.25 40.06 43.68 41.16 43.68 41.16 37.18 40.2 37.18 40.2 42.13"/>
    <polygon class="cls-2" points="45.23 43.68 48.72 43.68 48.72 42.76 46.19 42.76 46.19 40.58 48.72 40.58 48.72 39.7 46.19 39.7 46.19 38.09 48.72 38.09 48.72 37.18 45.23 37.18 45.23 43.68"/>
    <path class="cls-2" d="M55.73,41.36c-.1-.22-.29-.46-.54-.71-.11-.11-.42-.37-.92-.78-.76-.62-.94-.82-1.02-.91-.1-.13-.16-.28-.16-.44,0-.12.04-.29.24-.45.15-.12.33-.18.56-.18.38,0,.75.21,1.1.62l.7-.6c-.31-.33-.6-.56-.86-.69-.29-.14-.6-.22-.92-.22-.51,0-.92.15-1.26.46-.34.31-.5.66-.5,1.09,0,.29.1.59.31.89.22.31.71.78,1.46,1.37.42.33.69.58.82.75.14.19.22.38.22.58,0,.23-.1.43-.3.59-.19.16-.43.24-.71.24-.47,0-.89-.28-1.24-.84l-.82.48c.23.4.51.71.82.91.34.22.75.33,1.21.33.6,0,1.07-.16,1.44-.5.37-.33.54-.75.54-1.26,0-.26-.05-.5-.16-.73Z"/>
    <path class="cls-2" d="M63.08,42.09c0-.27-.05-.5-.16-.73-.1-.22-.29-.46-.54-.71-.11-.11-.42-.37-.92-.78-.76-.62-.94-.82-1.02-.91-.1-.13-.16-.28-.16-.44,0-.12.04-.29.24-.45.15-.12.33-.18.56-.18.38,0,.75.21,1.1.62l.7-.6c-.31-.33-.6-.56-.86-.69-.29-.14-.6-.22-.92-.22-.51,0-.92.15-1.26.46-.34.31-.5.66-.5,1.09,0,.29.1.59.31.89.22.31.71.78,1.46,1.37.42.33.69.58.82.75.14.19.22.38.22.58,0,.23-.1.43-.3.59-.19.16-.43.24-.71.24-.47,0-.89-.28-1.24-.84l-.81.48c.23.4.51.71.82.91.34.22.75.33,1.21.33.6,0,1.07-.16,1.44-.5.37-.33.54-.75.54-1.26Z"/>
    <path class="cls-2" d="M76.66,43.68l-.97-.99.73-.64-.56-.62c-.34.28-.56.46-.65.52l-.13.1-.12-.12c-.17-.16-.54-.58-1.12-1.24l-.11-.13.13-.12c.59-.57.82-.87.91-1.02.12-.21.18-.43.18-.66,0-.28-.13-.58-.4-.87-.26-.29-.64-.43-1.14-.43s-.87.14-1.13.43c-.27.3-.41.59-.41.88,0,.41.22.91.65,1.47l.11.15-.15.11c-.44.33-.75.65-.93.95-.17.3-.26.61-.26.94,0,.43.14.78.44,1.05.3.28.69.41,1.19.41.6,0,1.27-.21,1.98-.62l.13-.07.1.1.33.41h1.19ZM72.97,38.46c.12-.12.27-.18.45-.18.18,0,.34.05.45.16.12.11.18.25.18.42,0,.28-.2.59-.6.93l-.15.13-.12-.15c-.26-.32-.38-.61-.38-.88,0-.16.06-.3.18-.42ZM74.22,42.64c-.47.26-.85.39-1.17.39-.25,0-.45-.07-.62-.21-.21-.18-.26-.38-.26-.51,0-.35.26-.72.78-1.15l.15-.12.12.15c.44.54.79.93,1.03,1.16l.18.17-.21.12Z"/>
    <polygon class="cls-2" points="90.97 39.49 91.7 43.68 92.62 43.68 91.5 37.18 90.48 37.18 88.68 42.36 86.9 37.18 85.89 37.18 84.72 43.68 85.65 43.68 86.4 39.49 86.77 39.46 88.22 43.68 89.14 43.68 90.6 39.46 90.97 39.49"/>
    <path class="cls-2" d="M100.41,42.26l.56,1.41h.99l-2.58-6.5h-1.11l-2.59,6.5h1l.58-1.41h3.15ZM98.84,38.3l1.22,3.05h-2.45l1.23-3.05Z"/>
    <polygon class="cls-2" points="109.86 42.13 109.51 41.61 106.64 37.18 105.54 37.18 105.54 43.68 106.51 43.68 106.51 38.73 106.86 39.25 109.73 43.68 110.83 43.68 110.83 37.18 109.86 37.18 109.86 42.13"/>
    <path class="cls-2" d="M119.14,42.26l.55,1.41h.99l-2.58-6.5h-1.11l-2.59,6.5h1l.58-1.41h3.15ZM117.56,38.3l1.22,3.05h-2.45l1.23-3.05Z"/>
    <path class="cls-2" d="M130.47,42.28c.3-.51.46-1.05.46-1.61v-.11h-3.19v.86h2.16l-.13.26c-.21.44-.49.76-.85.97-.35.21-.78.31-1.28.31-.76,0-1.42-.25-1.94-.74-.52-.49-.79-1.11-.79-1.82s.26-1.28.76-1.77c.51-.48,1.14-.72,1.89-.72.79,0,1.5.28,2.1.85l.68-.65c-.38-.37-.76-.63-1.14-.79-.51-.21-1.07-.32-1.65-.32-1.12,0-2.04.38-2.73,1.14-.59.64-.88,1.39-.88,2.25,0,.63.16,1.22.48,1.76s.75.96,1.3,1.25c.55.3,1.18.44,1.88.44.65,0,1.22-.13,1.7-.4.48-.27.87-.66,1.18-1.16Z"/>
    <polygon class="cls-2" points="134.61 43.68 138.1 43.68 138.1 42.76 135.57 42.76 135.57 40.58 138.1 40.58 138.1 39.7 135.57 39.7 135.57 38.09 138.1 38.09 138.1 37.18 134.61 37.18 134.61 43.68"/>
    <polygon class="cls-2" points="147.54 39.49 148.27 43.68 149.19 43.68 148.07 37.18 147.05 37.18 145.26 42.36 143.48 37.18 142.46 37.18 141.3 43.68 142.23 43.68 142.98 39.49 143.35 39.46 144.8 43.68 145.71 43.68 147.17 39.46 147.54 39.49"/>
    <polygon class="cls-2" points="152.75 43.68 156.24 43.68 156.24 42.76 153.71 42.76 153.71 40.58 156.24 40.58 156.24 39.7 153.71 39.7 153.71 38.09 156.24 38.09 156.24 37.18 152.75 37.18 152.75 43.68"/>
    <polygon class="cls-2" points="164.27 42.13 163.92 41.61 161.05 37.18 159.94 37.18 159.94 43.68 160.91 43.68 160.91 38.73 161.26 39.25 164.13 43.68 165.24 43.68 165.24 37.18 164.27 37.18 164.27 42.13"/>
    <polygon class="cls-2" points="168.6 38.1 169.86 38.1 169.86 43.68 170.85 43.68 170.85 38.1 172.14 38.1 172.14 37.18 168.6 37.18 168.6 38.1"/>
  </g>
  <path class="cls-3" d="M4.85,15.86v4.3c0,1.58,1.87,2.87,6.17,2.87h17.56c1.18,0,1.43.66,1.43,1.98s-.26,1.98-1.43,1.98H10.88c-7.24,0-10.88-2.28-10.88-6.83V7.19C0,2.59,3.64.35,10.88.35h5.47c1.14,0,1.4.66,1.4,1.98s-.26,1.98-1.4,1.98h-5.33c-4.3,0-6.17,1.25-6.17,2.87v4.7h23.85c1.18,0,1.43.66,1.43,1.98s-.26,1.98-1.43,1.98H4.85Z"/>
  <path class="cls-3" d="M41.04,4.32v21.09c0,1.4-.85,1.73-2.46,1.73s-2.43-.33-2.43-1.73V4.32h-11.06c-1.18,0-1.43-.66-1.43-1.98s.26-1.98,1.43-1.98h27.04c1.18,0,1.43.66,1.43,1.98s-.26,1.98-1.43,1.98h-11.1Z"/>
  <path class="cls-3" d="M60.63,25.41c0,1.4-.85,1.73-2.46,1.73s-2.42-.33-2.42-1.73V1.93c0-1.4.85-1.73,2.42-1.73s2.46.33,2.46,1.73v23.48Z"/>
  <path class="cls-3" d="M95.09.21c-1.62,0-2.46.33-2.46,1.73v9.96h-23.66V1.93c0-1.4-.85-1.73-2.46-1.73s-2.42.33-2.42,1.73v23.47c0,1.4.84,1.73,2.42,1.73s2.46-.34,2.46-1.73v-9.55h23.66v.02c1.06.06,2.42.08,4.22.04.22,0,.44-.02.67-.02V1.93c0-1.4-.84-1.73-2.42-1.73ZM92.63,18.89v6.52c0,1.4.84,1.73,2.46,1.73s2.42-.34,2.42-1.73v-5.64c-.68,0-2.71-.05-4.89-.88ZM96.45,18.56c-1.74-.48-2.88-.89-3.82-1.27v.41c1.33.44,2.78.74,4.16.94-.12-.02-.22-.05-.34-.08Z"/>
  <path class="cls-3" d="M136.8,24.38l-9.7-13.83c-.62.58-2.04,1.82-3.42,2.64l2.02,2.96h-15.17l2.52-3.9,4.87-7.53,2.37,3.48c1.13-.68,2.32-1.44,3.57-2.29l-3.08-4.39c-.58-.81-1.43-1.29-2.86-1.29s-2.36.48-2.91,1.29l-8.49,12.88-3.04,4.62-3.53,5.35c-.15.26-.26.51-.26.81,0,1.14,1.43,1.98,2.65,1.98.62,0,1.25-.21,1.58-.74l4.08-6.31h20.43l4.33,6.31c.37.52.95.74,1.62.74,1.24,0,2.68-.84,2.68-1.95,0-.25-.07-.54-.25-.84Z"/>
  <path class="cls-3" d="M172.62,20.16c0,4.56-3.6,6.83-10.88,6.83h-20.83c-1.14,0-1.69-.59-1.69-1.73V2.04c0-1.14.55-1.69,1.69-1.69h20.83c7.27,0,10.88,2.24,10.88,6.83v12.97ZM144.11,23.02h17.49c4.3,0,6.21-1.29,6.21-2.87V7.19c0-1.62-1.91-2.87-6.21-2.87h-17.49v18.7Z"/>
  <path class="cls-1" d="M124.52,0l2.3,3.84c-.89.69-1.67,1.18-2.55,1.79-.15.1-.28.2-.42.29-1.24.85-2.44,1.61-3.57,2.29-3.36,2.03-6.08,3.32-7.24,4.04l-2.52,3.9h6.62c1.4-.91,2.78-1.83,4.07-2.72.61-.43,1.2-.84,1.77-1.24,1.33-.94,2.52-1.8,3.48-2.52.16-.12.31-.23.46-.35,1.37-1,2.19-1.64,2.19-1.64l3.07,3.84,3.95-11.51h-11.62ZM97.52,15.62c-2.86.22-4.89.25-4.89.25l-3.64-.02c.59.48,1.28.89,2.04,1.24.51.23,1.04.44,1.6.61,1.33.44,2.78.74,4.16.94.31.04.62.08.93.12,3.15.36,5.76.25,5.76.25l3.04-4.62c-3.09.65-6.39,1.01-9,1.21Z"/>
</svg>