<?xml version="1.0" encoding="UTF-8"?>
<svg id="Layer_1" data-name="Layer 1" xmlns="http://www.w3.org/2000/svg" viewBox="0 0 63.34 56">
  <defs>
    <style>
      .cls-1 {
        fill: #2e6eb5;
        stroke-width: 0px;
      }
    </style>
  </defs>
  <path class="cls-1" d="M10.2,32.6v9.04c0,3.32,3.94,6.03,12.98,6.03h36.92c2.47,0,3.01,1.39,3.01,4.17s-.54,4.17-3.01,4.17H22.86c-15.22,0-22.86-4.79-22.86-14.37V14.37C0,4.71,7.65,0,22.86,0h11.51c2.39,0,2.93,1.39,2.93,4.17s-.54,4.17-2.93,4.17h-11.2c-9.04,0-12.98,2.63-12.98,6.03v9.89h50.13c2.47,0,3.01,1.39,3.01,4.17s-.54,4.17-3.01,4.17H10.2Z"/>
</svg>